<?xml version="1.0" standalone="no"?>
<!DOCTYPE svg PUBLIC "-//W3C//DTD SVG 1.1//EN" "http://www.w3.org/Graphics/SVG/1.1/DTD/svg11.dtd" >
<svg xmlns="http://www.w3.org/2000/svg">
<metadata></metadata>
<defs>
<font id="akzidenz-grotesk_extended_bRg" horiz-adv-x="1366" >
<font-face units-per-em="2048" ascent="1638" descent="-410" />
<missing-glyph horiz-adv-x="768" />
<glyph horiz-adv-x="0" />
<glyph unicode="&#xd;" horiz-adv-x="1024" />
<glyph unicode=" "  horiz-adv-x="768" />
<glyph unicode="&#x09;" horiz-adv-x="768" />
<glyph unicode="&#xa0;" horiz-adv-x="768" />
<glyph unicode="!" horiz-adv-x="641" d="M281 0h157v203h-157v-203zM287 866l24 -456h95l26 413v623h-145v-580z" />
<glyph unicode="&#x22;" horiz-adv-x="811" d="M123 1426.5q2 -13.5 2 -17.5l68 -498h38l72 523q0 10 -2 37.5t-35 48.5q-14 10 -27.5 12t-19.5 2q-8 0 -22.5 -2t-28.5 -10.5t-26.5 -23.5t-16.5 -42q-4 -16 -2 -29.5zM507 1426.5q1 -13.5 3 -17.5l65 -498h39l74 523q0 10 -2 37.5t-35 48.5q-16 10 -28.5 12t-20.5 2 t-22.5 -2t-28.5 -10.5t-26.5 -23.5t-16.5 -42q-2 -16 -1 -29.5z" />
<glyph unicode="#" d="M86 530h342l-74 -530h119l78 530h207l-78 -530h127l72 530h358v111h-344l27 199h358v116h-344l67 494h-122l-64 -494h-205l70 494h-129l-66 -494h-356v-116h342l-27 -199h-358v-111zM565 641l29 199h205l-27 -199h-207z" />
<glyph unicode="$" horiz-adv-x="1662" d="M66 362q23 -41 43 -76.5t49 -72.5q27 -35 67.5 -71t97 -67.5t133 -57t175.5 -37.5q37 -4 74.5 -7.5t74.5 -7.5l2 -137h123v137q20 2 70.5 5t115 14.5t135 36t136.5 67.5q63 43 103 90t61.5 93t29 87t7.5 72q0 61 -18.5 108.5t-44 82t-53.5 56t-44 32.5q-39 25 -86 42 t-106.5 30.5t-135.5 24.5t-170 23v527q20 -2 69.5 -7.5t111 -21.5t128 -49t123.5 -88q16 -16 31.5 -36.5t20.5 -25.5l133 70q-6 6 -36 39t-61 59q-53 45 -110.5 76t-107.5 50.5t-92 29.5t-64 14q-37 6 -73 9.5t-73 7.5v131h-123v-131q-16 0 -49 -2t-76 -8.5t-92 -17.5 t-98 -30q-86 -33 -142.5 -79t-89 -95t-46 -98t-13.5 -88q0 -53 15.5 -95t37 -73t44 -50.5t38.5 -29.5q33 -20 69 -34.5t68.5 -23.5t57 -13.5t35.5 -6.5q59 -10 119.5 -17t119.5 -15l2 -615q-14 0 -56 3t-98.5 13.5t-119 30t-115.5 54.5q-66 43 -101.5 92t-47.5 73 q-8 16 -14.5 30.5t-12.5 31.5zM324 1075q0 51 21.5 86t33.5 49q45 51 109.5 81t126 44.5t108.5 18.5t57 4l2 -510q-90 8 -165.5 19.5t-134 29.5t-97.5 47t-53 74q-6 20 -7 33.5t-1 23.5zM905 94v596q166 -23 275.5 -47.5t167.5 -73.5q47 -41 56 -82t9 -63q0 -27 -7 -58.5 t-26.5 -64.5t-53.5 -65.5t-87 -61.5q-84 -45 -163 -59.5t-171 -20.5z" />
<glyph unicode="%" horiz-adv-x="2217" d="M61 965q0 -90 24 -159t57.5 -118t72.5 -82t68 -49q63 -35 119.5 -43t82.5 -8q86 0 167 31.5t143 97.5q43 45 67.5 93t36.5 93t15.5 81t3.5 59q0 18 -3.5 57t-16.5 86t-40 98t-72 96q-63 61 -144 92t-169 27q-84 -4 -139 -28.5t-80 -41t-58.5 -48t-63.5 -78.5 t-50.5 -110.5t-20.5 -145.5zM164 963q0 74 19.5 138t58.5 114.5t97 80t138 31.5q76 2 130.5 -20.5t91 -55t57 -68.5t28.5 -61q20 -53 24.5 -99t4.5 -67q0 -78 -19.5 -134t-48 -96t-61.5 -64.5t-61 -36.5q-16 -8 -51 -18.5t-85 -10.5q-57 0 -101 16.5t-77 39t-54.5 47 t-31.5 40.5q-23 33 -35 68t-17 65.5t-6 54t-1 36.5zM641 0h109l817 1409h-109zM1294 446q0 -90 23.5 -159.5t57.5 -118.5t73 -81t68 -48q63 -35 119.5 -43t82.5 -8q86 0 167 31.5t143 97.5q43 45 67.5 93t36.5 93t15 81t3 56t-3 58.5t-17 86.5t-41 99t-72 96q-61 61 -142 92 t-169 27q-84 -4 -139.5 -28.5t-79.5 -43.5q-25 -16 -58.5 -46.5t-63.5 -78t-50.5 -111t-20.5 -145.5zM1395 444q0 72 19.5 137.5t58 114.5t97 79t138.5 32q76 2 130 -19.5t91 -55.5t57.5 -69.5t30.5 -60.5q18 -53 22.5 -99t4.5 -67q0 -78 -19.5 -134t-48 -95t-61.5 -63.5 t-62 -37.5q-16 -8 -51 -18t-82 -10q-57 0 -101 16.5t-78 39t-55.5 46t-31.5 39.5q-23 33 -34 68t-17 65.5t-7 55t-1 36.5z" />
<glyph unicode="&#x26;" horiz-adv-x="1579" d="M78 381q0 -80 27.5 -134t44.5 -77q53 -74 122.5 -115t136 -60.5t123 -23.5t80.5 -4q109 0 222.5 31t203.5 92q33 23 53.5 41.5t49.5 44.5q72 -53 146.5 -101t166.5 -67q27 -4 56.5 -6t35.5 -2v123q-41 6 -72.5 13t-65.5 22.5t-75 42t-98 69.5q27 33 47 66 q41 61 67.5 128.5t43 128t24.5 106.5t13 67l-134 2q-4 -23 -9 -59.5t-16 -83.5t-31.5 -100.5t-51.5 -108.5q-10 -16 -22.5 -35t-24.5 -35q-80 72 -156 143q-63 63 -124.5 129t-121.5 134q82 35 158 74.5t129 117.5q14 20 31.5 61.5t17.5 104.5q0 102 -57 182t-156 111 q-41 14 -71.5 16t-49.5 2q-88 0 -165.5 -25.5t-135.5 -97.5q-16 -20 -40.5 -66t-24.5 -116q0 -74 32.5 -137.5t75.5 -118.5q10 -14 22.5 -27.5t22.5 -27.5q-53 -18 -110.5 -41t-110.5 -51.5t-100 -67.5t-80 -90q-35 -53 -42 -101t-7 -73zM223 387q0 55 20.5 95t48 68 t54.5 44t41 22q31 14 68 30t70.5 28t58 20.5t28.5 10.5q25 -31 50.5 -61t52.5 -58q53 -61 111.5 -119.5t117.5 -116.5q27 -25 53.5 -49.5t53.5 -48.5q-16 -16 -35 -30.5t-37 -27t-53 -31t-81 -35.5t-104.5 -28.5t-124.5 -11.5q-76 0 -135 15.5t-102 40t-71.5 53t-45.5 55.5 q-39 66 -39 135zM514 1116q0 61 33 107.5t92 68.5q31 10 57.5 13.5t38.5 3.5q57 0 108.5 -23.5t80.5 -73.5q16 -29 20 -52t4 -38q0 -29 -6 -47t-10 -28q-18 -47 -60.5 -86t-134.5 -80q-20 -8 -39 -15.5t-39 -15.5q-76 90 -110.5 148.5t-34.5 117.5z" />
<glyph unicode="'" horiz-adv-x="425" d="M123 1426.5q2 -13.5 2 -17.5l68 -498h38l72 523q0 10 -2 37.5t-35 48.5q-14 10 -27.5 12t-19.5 2q-8 0 -22.5 -2t-28.5 -10.5t-26.5 -23.5t-16.5 -42q-4 -16 -2 -29.5z" />
<glyph unicode="(" horiz-adv-x="724" d="M158 541q0 -176 39 -318.5t95 -252t117.5 -187.5t106.5 -123q33 -33 59.5 -55.5t61.5 -50.5l53 59q-29 27 -67.5 69t-90.5 115q-78 111 -121.5 218.5t-66 202.5t-29 174t-6.5 132q0 143 25.5 265t62.5 219.5t78 168t72 113.5q25 33 54.5 67t86.5 93l-49 53 q-25 -20 -67 -55t-91 -85t-99 -115.5t-93 -147.5q-45 -88 -72 -173t-40 -159t-16 -133.5t-3 -93.5z" />
<glyph unicode=")" horiz-adv-x="724" d="M37 -393l51 -53q25 20 67 55t91 85t99 115.5t91 147.5q45 88 72 173t41 158.5t17 133t3 94.5q0 176 -38.5 318.5t-95 252t-119 186.5t-107.5 124q-33 35 -58.5 56.5t-62.5 49.5l-51 -59q29 -25 66.5 -67t89.5 -115q78 -111 121.5 -219.5t66 -204t29 -174t6.5 -132.5 q0 -145 -25.5 -266t-62.5 -218t-78 -167.5t-72 -113.5q-23 -33 -53.5 -67t-87.5 -93z" />
<glyph unicode="*" horiz-adv-x="811" d="M102 1208l238 -98l-156 -203l78 -59l141 211l160 -203l76 53l-164 197l236 100l-37 90l-217 -104l4 254h-96l6 -254l-219 104z" />
<glyph unicode="+" d="M86 535h537v-535h122v535h535v122h-535v533h-122v-533h-537v-122z" />
<glyph unicode="," horiz-adv-x="555" d="M199 0h77q0 -33 -2 -71t-24 -66q-18 -25 -47 -27v-74l37 7q23 8 37 17t22 17q35 33 43 72t10 84v244h-153v-203z" />
<glyph unicode="-" horiz-adv-x="768" d="M106 645h564v127h-564v-127z" />
<glyph unicode="." horiz-adv-x="555" d="M197 0h157v203h-157v-203z" />
<glyph unicode="/" horiz-adv-x="1024" d="M35 0h123l815 1446h-121z" />
<glyph unicode="0" horiz-adv-x="1492" d="M61 707q0 -45 3.5 -78t5.5 -49q18 -117 62 -214.5t124 -183.5q66 -70 135.5 -109.5t134 -61t119.5 -28t90 -6.5q25 0 69 4.5t99 17.5t117.5 38.5t122.5 71.5q141 104 212.5 262.5t71.5 333.5q0 86 -15 159.5t-36.5 132t-47 101.5t-44.5 69q-68 92 -146.5 145.5t-154.5 81 t-141.5 35t-102.5 7.5q-25 -2 -67.5 -5.5t-102.5 -17.5q-82 -20 -145.5 -55t-109.5 -74t-77.5 -76t-48.5 -61q-61 -92 -94 -211t-33 -229zM209 700q0 80 15.5 160t48 151.5t85 131t125.5 100.5q80 43 148.5 53.5t101.5 12.5q94 2 157.5 -18.5t96.5 -37.5q14 -6 42 -24.5 t62.5 -47t53 -51t29.5 -38.5q35 -51 69.5 -142.5t34.5 -236.5q0 -133 -32 -229.5t-80 -164t-105 -108.5t-107 -64q-29 -10 -82 -26.5t-131 -16.5q-88 0 -165.5 26t-142 74t-114 114.5t-75.5 148.5q-27 76 -31 141.5t-4 91.5z" />
<glyph unicode="1" horiz-adv-x="1492" d="M338 1016h43q33 0 76 4t92 15.5t94 33.5q16 8 35.5 20.5t34.5 22.5l2 -1112h139v1419h-94q-14 -51 -24.5 -77.5t-24.5 -49.5q-47 -74 -118 -108.5t-155 -44.5q-35 -4 -59.5 -5t-40.5 -1v-117z" />
<glyph unicode="2" horiz-adv-x="1492" d="M150 2h1222v119h-1003q72 29 134 55.5t121.5 54t120 58t127.5 69.5q98 57 171 108.5t125.5 99.5t86 96.5t56.5 99.5q29 66 36 118t7 81q0 111 -44 195.5t-130 152.5q-27 20 -64 43.5t-86 42t-112.5 31t-145.5 12.5q-27 0 -71 -2t-99 -13.5t-114.5 -34t-117 -62.5 t-106.5 -101.5t-80 -147.5q-10 -29 -18 -64.5t-16 -97.5l141 -22q0 18 5 74.5t32 115.5q29 63 77 107.5t106 72t123.5 40t131.5 12.5q96 0 168 -21.5t122 -55.5t80.5 -75t47.5 -80q16 -41 20 -73.5t4 -48.5q0 -76 -24.5 -137.5t-58 -107.5t-66.5 -77t-49 -43 q-63 -53 -143.5 -104.5t-184.5 -106.5t-235.5 -116.5t-294.5 -137.5z" />
<glyph unicode="3" horiz-adv-x="1492" d="M117 354q10 -16 34.5 -64t65.5 -97q14 -16 47 -48t84 -65q61 -37 125 -58.5t121 -31.5t101 -12.5t65 -2.5q168 0 279.5 39t166.5 76q57 41 93 87t54.5 90t24.5 84t6 67q0 72 -23.5 125t-55 89t-65.5 57.5t-54 31.5q-39 16 -67.5 22.5t-45.5 10.5q43 10 66.5 19t42.5 20 q68 39 107.5 104.5t39.5 142.5q0 49 -18.5 106.5t-61.5 110t-115.5 94.5t-183.5 64q-59 10 -112.5 14.5t-71.5 4.5q-166 0 -268.5 -41t-159.5 -84q-10 -8 -28.5 -24.5t-41.5 -45.5q-43 -51 -65.5 -96t-44.5 -107l135 -45q10 41 23.5 76t37.5 70q45 66 108.5 100.5t125 51 t109.5 19.5t67 3q6 0 53 -1t108.5 -14.5t125 -43t102.5 -87.5q10 -14 23.5 -44.5t13.5 -76.5q0 -57 -22.5 -98t-51.5 -66.5t-59.5 -40t-44.5 -20.5q-47 -16 -91 -18t-63 -4h-248v-121h232q45 0 94 -3t95 -14.5t88 -35t75 -62.5q14 -16 32.5 -51t18.5 -92q0 -49 -14 -86 t-25 -51q-10 -18 -33.5 -46t-66.5 -56.5t-127 -56.5t-207 -28q-147 0 -240.5 38t-140.5 77q-47 37 -79.5 85t-57.5 103z" />
<glyph unicode="4" horiz-adv-x="1492" d="M70 379h891v-379h137v379h305v121h-305v923h-152l-876 -923v-121zM233 500l728 770v-770h-728z" />
<glyph unicode="5" horiz-adv-x="1492" d="M94 354q4 -14 9.5 -26.5t13.5 -26.5q14 -29 56 -89t120 -114q63 -43 133 -67.5t131 -35.5t109.5 -14.5t70.5 -3.5q123 0 217.5 26t163 66t115.5 87t74 92q16 29 42.5 91t26.5 155q0 70 -18.5 135t-57.5 121q-27 39 -70.5 81.5t-108 77.5t-150.5 58.5t-199 23.5 q-152 0 -247 -32.5t-148 -69.5q-29 -20 -54.5 -44t-31.5 -30l28 479h959v115h-1081l-45 -766h129q10 14 29.5 39t54.5 55q53 47 110 75t109.5 41t95.5 16t68 3q18 0 72 -4t121 -23.5t135.5 -60.5t113.5 -114q35 -53 42 -101.5t7 -72.5q0 -72 -22.5 -122t-38.5 -73 q-49 -74 -119 -115t-137.5 -61.5t-123 -24.5t-75.5 -4q-14 0 -63.5 3t-114 18.5t-131 48.5t-113.5 92q-16 23 -31.5 51.5t-36.5 83.5z" />
<glyph unicode="6" horiz-adv-x="1492" d="M109 653q0 -31 3 -81t16 -108t39 -123t71 -124t111.5 -110.5t160.5 -83.5q88 -33 164 -39.5t106 -6.5q78 0 158 14.5t154.5 44.5t138 78t110.5 115q51 76 63.5 142.5t12.5 101.5q0 47 -9 86t-22.5 69.5t-29 53.5t-25.5 37q-61 80 -145 125t-164 65.5t-144.5 24.5t-86.5 4 q-90 0 -194.5 -20.5t-184.5 -63.5q-43 -25 -70 -48.5t-41 -37.5q-29 -35 -41 -55.5t-20 -40.5q2 27 3 52.5t5 51.5q4 29 10 58.5t14 58.5q4 16 17.5 59t38.5 90q18 35 52 80t88 86t131 69t181 28q25 0 68 -3.5t95 -16.5t109.5 -40.5t110.5 -77.5q37 -35 57.5 -61.5 t32.5 -42.5l129 59q-33 45 -64.5 84t-76.5 76q-61 51 -130 81t-130 45t-111.5 18.5t-74.5 3.5q-23 0 -59 -2.5t-81 -10.5t-97 -24.5t-105 -44.5q-45 -25 -96.5 -66t-97.5 -103.5t-83 -151.5t-55 -210q-8 -53 -10 -100t-2 -64zM297 471q0 117 78 201q47 49 109.5 77.5t121 42 t103.5 16.5t57 3t69.5 -1t130 -17.5t146.5 -55.5t121 -112q31 -51 38 -93.5t7 -64.5q0 -29 -12.5 -83t-59.5 -114q-51 -61 -117.5 -95t-130 -49t-114.5 -18.5t-70 -3.5q-123 0 -204 28t-121 56q-16 10 -42 34t-50.5 58.5t-42 83t-17.5 107.5z" />
<glyph unicode="7" horiz-adv-x="1492" d="M147 1286h1031q-20 -20 -56.5 -58t-81.5 -90.5t-95 -116t-97 -134.5q-23 -33 -64 -103.5t-86 -167t-86 -215t-61 -247.5q-12 -78 -12 -154h153q2 35 5 87t20 138q25 127 65.5 236.5t85.5 198t86 154t66 101.5q94 137 173 221.5t132 129.5q14 10 27.5 20t27.5 21v102 h-1233v-123z" />
<glyph unicode="8" horiz-adv-x="1492" d="M100 389q0 -109 59.5 -189.5t149.5 -129.5q66 -37 138.5 -55.5t137 -26.5t112.5 -9.5t65 -1.5q16 0 86 2.5t159 23t179 67.5t149 135q37 59 46.5 107t9.5 77q0 115 -72 195t-170 121q-45 18 -78 24t-53 10q66 10 128 35t111 78q51 57 64.5 112.5t13.5 84.5 q0 96 -53 170.5t-131 121.5q-57 33 -120.5 52.5t-119 28t-98.5 10.5t-59 2q-14 0 -78 -3.5t-147 -21.5t-169 -60t-141 -122q-39 -55 -47 -103.5t-8 -76.5q0 -20 6 -61.5t35 -88.5q31 -47 70.5 -76.5t78.5 -47t72 -25t47 -9.5q-35 -4 -46 -7t-34 -9q-86 -27 -164.5 -86 t-111.5 -145q-12 -35 -14.5 -62t-2.5 -41zM242 391q0 47 16 82t37.5 59.5t43 40t34.5 21.5q47 27 102 41t104.5 22.5t86.5 10.5t47 2q4 0 61 1t136 -11.5t160 -43t132 -92.5q33 -39 40 -74.5t7 -56.5q0 -53 -17.5 -91t-42 -65.5t-49 -44t-36.5 -22.5q-49 -27 -105.5 -42 t-107.5 -22.5t-89 -8.5t-50 -1q-20 0 -62.5 1t-94.5 10.5t-111.5 28t-116.5 54.5q-12 8 -33 23.5t-41.5 40.5t-35.5 58.5t-15 78.5zM309 1055q0 14 4 36.5t14.5 48t31 52.5t55.5 49q41 29 117.5 51.5t195.5 26.5h53q53 0 123 -11.5t142.5 -41t113.5 -88.5q35 -53 39 -121 q0 -61 -25.5 -101.5t-42.5 -54.5q-41 -35 -137 -66.5t-235 -31.5q-2 0 -47 2t-106.5 12t-127 31.5t-108.5 62.5q-41 39 -50.5 81t-9.5 63z" />
<glyph unicode="9" horiz-adv-x="1492" d="M90 930q0 -86 25.5 -142.5t42.5 -82.5q57 -86 140 -133.5t163 -70t145.5 -26.5t87.5 -4q78 0 137.5 10.5t88.5 16.5q78 18 147.5 50t124.5 89q39 39 57.5 72.5t26.5 52.5q0 -45 -2 -77t-5 -56.5t-8.5 -46t-11.5 -45.5q-16 -70 -32.5 -109t-32.5 -70 q-70 -125 -188.5 -190.5t-260.5 -65.5q-111 0 -214 39t-181 115q-25 23 -39 42t-25 30l-126 -62q18 -25 49.5 -64.5t87.5 -82.5q61 -49 128.5 -77t127 -41t107.5 -17t73 -4q33 0 94.5 6t135 28.5t151.5 69.5t143 127q12 16 34 46t44 77q29 61 45 125.5t23.5 122t9.5 100.5 t2 61q0 111 -23.5 217.5t-85.5 200.5q-63 98 -144 153.5t-160 81t-146.5 32t-104.5 6.5q-125 0 -222 -27t-168.5 -68t-119 -89t-73.5 -91q-23 -37 -36 -70.5t-20.5 -63.5t-9.5 -54.5t-2 -40.5zM231 938q0 80 29 131t49 74q25 27 63 56.5t93 54t128 40t163 13.5 q109 -2 179.5 -24.5t106.5 -45.5q39 -23 74 -59.5t55 -77.5q10 -16 24.5 -58.5t14.5 -97.5q0 -82 -29.5 -130t-52.5 -71q-53 -55 -120.5 -83.5t-131 -43t-112.5 -16.5t-64 -2h-36q-27 0 -66 5t-85 16.5t-91 32t-85 53t-67 81.5q-29 49 -34 90.5t-5 61.5z" />
<glyph unicode=":" horiz-adv-x="641" d="M283 0h161v203h-161v-203zM283 801h161v200h-161v-200z" />
<glyph unicode=";" horiz-adv-x="641" d="M283 0h75q2 -33 0 -71t-24 -66q-18 -25 -47 -27v-74q10 2 18 3.5t17 3.5q25 8 39 17t22 17q35 33 43 72t10 84v244h-153v-203zM283 801h161v200h-161v-200z" />
<glyph unicode="&#x3c;" d="M0 653l1366 -659v131l-1229 600l1229 596v131l-1366 -655v-144z" />
<glyph unicode="=" d="M0 354h1366v119h-1366v-119zM0 715h1366v121h-1366v-121z" />
<glyph unicode="&#x3e;" d="M0 -6l1366 659v144l-1366 655v-131l1229 -596l-1229 -600v-131z" />
<glyph unicode="?" horiz-adv-x="1449" d="M164 1034l121 -45q16 47 36.5 96.5t51.5 90.5q18 25 52 56.5t83 59t114.5 47t149.5 19.5q121 0 199 -31t116 -59q16 -12 38 -33t40.5 -51.5t31.5 -71.5t13 -96q0 -20 -4 -52t-19.5 -69t-46 -74t-81.5 -63q-25 -12 -54.5 -24.5t-56 -22t-46 -15.5t-21.5 -6 q-37 -10 -73 -21.5t-67.5 -27.5t-55 -43t-34.5 -70q-4 -25 -6 -50t-4 -75h127q2 45 6 71t21 44q12 14 34.5 24.5t48 19.5t50 15.5t41.5 10.5q115 35 178 72.5t98 80.5q35 39 55.5 82t30.5 82t12.5 70t2.5 47q0 53 -9.5 96t-24 76t-30.5 57.5t-31 40.5q-57 70 -129.5 108 t-142.5 55.5t-126 20.5t-77 3q-174 0 -314 -64.5t-231 -222.5q-23 -41 -37 -78t-30 -80zM627 0h153v203h-153v-203z" />
<glyph unicode="@" horiz-adv-x="1835" d="M141 477q0 -121 27 -213t66.5 -161.5t85 -116.5t83.5 -76q111 -84 249.5 -124t273.5 -40q117 0 216 23.5t177 57.5t135 70.5t90 61.5q35 27 65.5 53.5t63.5 57.5l-55 65q-29 -29 -86 -77t-150 -99q-74 -41 -142.5 -65.5t-126.5 -37t-106.5 -15.5t-82.5 -3 q-115 0 -204 22.5t-157.5 57.5t-117 76t-76.5 78q-49 59 -76 119.5t-40 114.5t-16.5 99.5t-3.5 71.5q0 129 36 252t102.5 230.5t161 193.5t210.5 141q109 51 199 62.5t133 11.5q29 0 91.5 -6t134 -31.5t141 -81t112.5 -153.5q16 -37 25.5 -72t13.5 -65.5t5 -55t1 -37.5 q0 -27 -5 -80t-20 -120.5t-47 -143.5t-83 -145q-37 -51 -72 -80t-59 -39q-10 -4 -22.5 -8t-22.5 -4q-29 0 -44.5 16.5t-22.5 35.5t-8 36.5t-1 19.5q0 33 7 80t16.5 97.5t20.5 96.5t17 79l66 301h-121l-33 -148q-4 6 -14 34t-27 50q-8 12 -24.5 31.5t-41 37t-58 30 t-78.5 12.5q-41 0 -77 -11.5t-65.5 -27t-50 -29.5t-29.5 -22q-45 -39 -102 -121t-88 -223q-4 -23 -10 -58t-6 -88q0 -78 24.5 -154.5t89.5 -123.5q18 -14 54 -30.5t94 -16.5q51 0 95 16t78 38.5t56.5 44t32.5 32.5q23 27 45 57q-2 -23 -1 -39t7 -39q2 -14 12.5 -33.5 t28.5 -37t47 -30t70 -12.5q49 0 92 18.5t77 41t56.5 45t30.5 31.5q51 55 91 125.5t66.5 148.5t40 158t13.5 153q0 96 -19.5 171t-50.5 131.5t-66.5 96.5t-66.5 64q-59 47 -119.5 73t-116 38t-100.5 14t-70 2q-152 0 -270.5 -40t-208.5 -95t-151.5 -115.5t-94.5 -103.5 q-74 -92 -116.5 -185.5t-66 -177.5t-30 -152.5t-6.5 -111.5zM633 483q0 53 11 113.5t34.5 119t57.5 110t81 81.5q10 6 44 22.5t75 16.5q29 0 62.5 -11t61 -39t46 -72.5t16.5 -112.5q0 -16 -5 -60.5t-20.5 -101.5t-46 -116.5t-83.5 -106.5q-47 -41 -89 -53.5t-67 -12.5 q-31 0 -61.5 10.5t-57 37t-43 68.5t-16.5 107z" />
<glyph unicode="A" horiz-adv-x="1622" d="M12 0h146l184 375h932l186 -375h150l-729 1446h-156zM397 489l406 828l414 -828h-820z" />
<glyph unicode="B" horiz-adv-x="1878" d="M168 0h1126q86 2 166 14.5t152 65.5q51 37 80.5 84t44 91t17.5 82t3 56q0 57 -14 111.5t-42 100.5t-69 82t-96 56q-27 10 -52.5 14.5t-51.5 8.5q16 4 47.5 13t68.5 34q25 16 62 56t59 112q10 35 12 60.5t2 41.5q0 78 -25.5 131.5t-41.5 77.5q-59 80 -138 114t-178 40 h-1132v-1446zM309 121v573h871q47 0 100 -3t104.5 -14t96.5 -36t78 -70q39 -51 47 -105t8 -73q0 -18 -6 -57t-31 -84q-25 -43 -56.5 -67.5t-64.5 -38t-59.5 -17.5t-40.5 -6q-16 0 -30.5 -1t-31.5 -1h-985zM309 817v512h903q41 0 81 -3t77 -14.5t68.5 -33t56.5 -59.5 q29 -45 34 -85t5 -59q0 -63 -19.5 -102t-35.5 -58q-29 -35 -62 -53t-69.5 -28.5t-76.5 -13.5t-79 -3h-883z" />
<glyph unicode="C" horiz-adv-x="1662" d="M84 729q0 -186 80 -347t227 -271q33 -25 80 -51.5t108.5 -48t140.5 -35t177 -13.5q102 0 185 16.5t147.5 41t113 53t82.5 53.5q102 76 151.5 146.5t76.5 115.5l-125 60q-35 -55 -53.5 -80t-40.5 -52q-72 -80 -149 -125t-149.5 -68.5t-133 -28.5t-97.5 -5q-31 0 -85 4 t-121.5 22.5t-141.5 56.5t-139 103q-61 61 -97 127t-54.5 126.5t-23.5 109.5t-5 80q0 29 5 79t22.5 111.5t52 129t94.5 128.5q66 68 139.5 107t142 58.5t123.5 24.5t86 5q27 0 81 -4t122 -22.5t139.5 -55.5t134.5 -100q45 -45 74 -91.5t39 -62.5l123 68q-35 55 -69 100 t-83 90q-78 72 -164 113t-163.5 62.5t-141 26.5t-96.5 5q-43 0 -118.5 -8t-165 -37t-185.5 -86t-178 -158q-59 -70 -92 -139.5t-50.5 -133t-21.5 -115.5t-4 -85z" />
<glyph unicode="D" horiz-adv-x="1748" d="M170 0h655q117 2 230.5 12.5t224.5 61.5q131 59 217 170.5t123 249.5q20 74 24.5 136t4.5 89q0 33 -5.5 100.5t-30 149.5t-73.5 169t-137 158q-86 72 -179.5 105t-201.5 41q-33 4 -66 4h-63h-723v-1446zM313 121v1206h580q74 -2 133 -8t131 -33q92 -35 157.5 -94 t107.5 -136t61.5 -165t19.5 -180q0 -90 -14 -160t-38 -123t-53.5 -93t-58.5 -67q-57 -53 -124.5 -82.5t-141.5 -44t-149.5 -17.5t-149.5 -3h-461z" />
<glyph unicode="E" horiz-adv-x="1705" d="M170 0h1444v121h-1303v575h1149v123h-1149v508h1243v119h-1384v-1446z" />
<glyph unicode="F" horiz-adv-x="1536" d="M170 0h141v688h1065v125h-1065v514h1190v119h-1331v-1446z" />
<glyph unicode="G" horiz-adv-x="1835" d="M90 719q0 -70 10.5 -129.5t24.5 -106.5t31.5 -82.5t29.5 -58.5q53 -94 120 -157.5t132.5 -103.5t124 -60.5t94.5 -28.5q86 -23 148.5 -28t99.5 -5q104 0 191.5 19.5t155 49t116.5 62.5t78 60q20 18 50 53t63 92v-295h124v756h-892v-123h768q-2 -20 -7.5 -67.5 t-25.5 -102.5q-25 -66 -65 -120t-92 -98t-113.5 -77t-125.5 -51q-72 -20 -128 -24.5t-84 -4.5q-111 0 -198 22.5t-153.5 56.5t-112.5 73t-75 73q-49 57 -77 120t-42 118t-17 101t-3 71q0 100 26.5 191.5t76.5 168t124 135t168 95.5q88 35 159.5 41t106.5 6q76 0 152.5 -12.5 t147.5 -40t134.5 -71.5t112.5 -106q23 -29 36 -48t29 -52l136 78q-18 29 -59.5 87t-114.5 118q-78 63 -165 99t-166 53.5t-141.5 21.5t-89.5 4q-133 0 -237.5 -27.5t-184 -68.5t-135 -89.5t-90.5 -88.5q-61 -72 -96 -146t-53.5 -141.5t-22.5 -122.5t-4 -88z" />
<glyph unicode="H" horiz-adv-x="1835" d="M170 0h141v707h1215v-707h137v1446h-137v-619h-1215v619h-141v-1446z" />
<glyph unicode="I" horiz-adv-x="468" d="M168 0h137v1446h-137v-1446z" />
<glyph unicode="J" horiz-adv-x="1280" d="M12 354q8 -18 22.5 -54t41 -78t64.5 -85t91.5 -77.5t108.5 -54t105.5 -29t89 -11.5t57.5 -2q111 0 184.5 22.5t114.5 43.5q111 57 165 142t72 204q10 57 11.5 109.5t3.5 68.5v893h-135v-764q0 -51 -1 -113.5t-9.5 -125t-26 -121t-51.5 -103.5q-37 -47 -86.5 -72.5 t-96.5 -38t-85 -14.5t-50 -2q-23 0 -72 4t-108.5 23.5t-118.5 59.5t-102 112q-16 29 -26.5 56.5t-18.5 60.5z" />
<glyph unicode="K" horiz-adv-x="1622" d="M170 0h137v412l479 389l646 -801h182l-719 889l684 557h-190l-1082 -879v879h-137v-1446z" />
<glyph unicode="L" horiz-adv-x="1409" d="M170 0h1196v121h-1053v1325h-143v-1446z" />
<glyph unicode="M" horiz-adv-x="1921" d="M168 0h131v1288q4 -16 9 -30.5t11 -30.5q4 -12 10.5 -23.5t10.5 -23.5l553 -1180h143l547 1190q10 23 21.5 47.5t21.5 48.5v-1286h129v1446h-180l-608 -1325q-10 23 -17.5 44t-17.5 44q-8 16 -15.5 32.5t-15.5 32.5l-549 1172h-184v-1446z" />
<glyph unicode="N" horiz-adv-x="1835" d="M170 0h129v1262l1239 -1262h129v1446h-129v-1268l-1239 1268h-129v-1446z" />
<glyph unicode="O" horiz-adv-x="1878" d="M86 725q0 -25 2 -64.5t11.5 -88t28.5 -104.5t52 -116q51 -92 119 -157.5t142.5 -108.5t149.5 -68.5t141.5 -38t119.5 -15.5t82 -3q43 0 124 7t178 36t200.5 89.5t191.5 164.5q55 68 89 138.5t50.5 133t21.5 114.5t5 83q0 27 -3 70t-15.5 96t-36 113.5t-62.5 121.5 q-82 129 -189.5 202t-214 108t-195.5 44t-134 9q-125 0 -247 -27.5t-227 -85t-189 -146.5t-136 -210q-41 -98 -50 -177t-9 -120zM238 719q0 109 27.5 193.5t66.5 148t82 106.5t73 66q59 43 123 69.5t120 40t101 18.5t68 5h31q62 0 116 -6q68 -8 123.5 -23.5t97.5 -33 t68 -31.5q76 -41 127 -94.5t84 -107.5t49.5 -101t24.5 -78q12 -55 14 -93t2 -63q0 -35 -5 -94t-28.5 -131t-71.5 -147.5t-132 -139.5q-68 -49 -137.5 -77.5t-131 -42t-111.5 -16.5t-77 -3t-75 3t-108.5 15.5t-129 37t-133 67.5t-119.5 107.5t-92 156.5q-33 80 -40 149.5 t-7 98.5z" />
<glyph unicode="P" horiz-adv-x="1662" d="M168 0h143v647h785q49 0 99 3t99 12.5t96.5 28t88.5 50.5q51 39 80.5 84t44 88t18.5 79t4 59q0 92 -27.5 152.5t-48.5 86.5q-6 10 -24.5 29.5t-42.5 40.5q-80 59 -169 72.5t-186 13.5h-960v-1446zM311 766v561h832q59 -2 118.5 -10t110.5 -43q37 -25 57.5 -58.5 t30.5 -66.5t13.5 -59.5t3.5 -38.5q0 -78 -27 -125t-51 -70q-35 -35 -78 -52.5t-89 -26.5t-93 -10t-92 -1h-736z" />
<glyph unicode="Q" horiz-adv-x="1878" d="M82 725q0 -33 5 -87t23.5 -120.5t53.5 -140.5t94 -144q53 -61 104.5 -97t77.5 -52q35 -20 82 -43t108.5 -41t139.5 -29.5t176 -11.5q92 0 165 12.5t129 32t100 42t81 40.5l338 -186l62 110l-285 156q39 35 62.5 61.5t37.5 44.5q53 66 84 132.5t46.5 126t19.5 108.5t4 80 q0 174 -74 327.5t-211 260.5q-123 96 -270.5 137t-302.5 41q-37 0 -106.5 -5t-155.5 -27.5t-180.5 -69t-180.5 -126.5q-29 -27 -67.5 -72.5t-74.5 -111t-60.5 -152.5t-24.5 -196zM236 723q0 80 15 143.5t36.5 112.5t46 85t45.5 60q61 74 137 123q59 39 120.5 61.5t116 34 t97 14.5t65.5 3t74 -3t118 -15.5t140.5 -39t141.5 -73.5q86 -61 135 -135t73.5 -143.5t30.5 -130t6 -93.5q0 -74 -13 -135.5t-31.5 -110.5t-40 -85t-38.5 -58q-49 -68 -114.5 -116t-140 -79.5t-155.5 -46t-161 -14.5q-139 0 -278.5 44t-241.5 140q-66 61 -102.5 129 t-55 131.5t-22.5 115.5t-4 81z" />
<glyph unicode="R" horiz-adv-x="1792" d="M170 0h139v645h662l571 -645h195l-582 645q96 4 190.5 18.5t176.5 73.5q51 39 80.5 84t44 88t18.5 80t4 60q0 14 -2 39.5t-8 56.5t-18.5 64.5t-34.5 68.5q-39 57 -87.5 91t-95.5 50.5t-87 20.5t-62 4q-27 2 -53 2h-52h-999v-1446zM309 768v559h865q61 0 120.5 -6 t112.5 -41q37 -25 59.5 -58.5t33.5 -65.5t14.5 -59.5t3.5 -39.5q0 -49 -12.5 -86t-20.5 -53q-23 -45 -56.5 -73t-73.5 -44.5t-84 -22.5t-89 -8q-25 -2 -49 -2h-48h-776z" />
<glyph unicode="S" horiz-adv-x="1662" d="M66 362q29 -51 55 -96t67 -88q68 -72 153 -113.5t165 -62t142.5 -27t84.5 -8.5q33 -2 63.5 -3t61.5 -1q133 0 236.5 20.5t182.5 56.5t132 81t88 94q45 66 56.5 125t11.5 90q0 109 -58.5 187.5t-156.5 119.5q-96 41 -252 63.5t-391 57.5q-102 14 -163 24.5t-106 32.5 q-10 6 -29.5 16.5t-38 29t-31.5 45t-13 65.5q0 37 10 64.5t16 38.5q18 33 47 58t60 44q53 31 112.5 48t112.5 25.5t93 9.5t57 1q68 0 138 -8.5t137 -28.5t128 -54t111 -85q20 -25 43 -54l131 70q-12 16 -36 42t-63 58q-82 68 -170 105t-167.5 54.5t-144 21.5t-97.5 4 q-111 0 -236 -22.5t-223 -76.5q-88 -49 -147.5 -133t-59.5 -188q0 -63 19.5 -109.5t47 -79t57.5 -52t48 -27.5q63 -33 142 -47.5t149 -24.5q66 -10 131.5 -17.5t130.5 -17.5q39 -6 101.5 -14t127 -21.5t123 -33t93.5 -48.5q18 -16 42.5 -52t24.5 -99q0 -80 -44 -138.5 t-109 -99.5q-59 -35 -124 -54t-122.5 -28.5t-102.5 -10.5t-65 -1q-174 0 -284.5 33t-174.5 74q-43 29 -72.5 60.5t-49 62t-32 56t-18.5 44.5z" />
<glyph unicode="T" horiz-adv-x="1409" d="M-2 1327h649v-1327h137v1327h621v119h-1407v-119z" />
<glyph unicode="U" horiz-adv-x="1792" d="M162 610q2 -76 6 -148.5t31 -144.5q31 -84 79 -140t99 -91t98 -53.5t78 -26.5q55 -16 111.5 -24.5t105.5 -12.5t86 -5t53 -1q37 0 106.5 3t162.5 24q115 27 207 78t155 155q33 53 50.5 108.5t25.5 103.5t9 86t1 59v866h-131v-764q0 -145 -12.5 -228t-48.5 -147 q-33 -55 -80 -96t-116 -66.5t-161 -38t-215 -12.5q-201 0 -317.5 52.5t-171.5 129.5q-31 43 -47.5 91.5t-23.5 97.5t-7 100v103v778h-133v-836z" />
<glyph unicode="V" horiz-adv-x="1449" d="M0 1446l682 -1446h135l670 1446h-154l-579 -1294l-598 1294h-156z" />
<glyph unicode="W" horiz-adv-x="2174" d="M6 1446l479 -1446h164l398 1155q12 37 24 75t25 75q4 -14 7 -28.5t7 -29.5q6 -23 13 -43t16 -43l403 -1161h168l459 1446h-137l-334 -1055q-18 -61 -37 -122.5t-35 -125.5l-61 185l-396 1118h-149q-57 -166 -114.5 -330t-114.5 -330q-35 -96 -68 -191t-66 -192 q-23 -66 -43 -130t-41 -130q-12 41 -25 83t-26 83l-370 1137h-146z" />
<glyph unicode="X" horiz-adv-x="1492" d="M-8 1446l657 -705l-641 -741h172l557 645l600 -645h179l-693 741l613 705h-172l-527 -606l-567 606h-178z" />
<glyph unicode="Y" horiz-adv-x="1492" d="M12 1446l682 -860v-586h131v586l656 860h-164l-557 -744l-576 744h-172z" />
<glyph unicode="Z" horiz-adv-x="1536" d="M0 0h1499v121h-1300l1337 1198v127h-1423v-119h1237l-1350 -1210v-117z" />
<glyph unicode="[" horiz-adv-x="598" d="M166 -442h383v129h-250v1683h250v127h-383v-1939z" />
<glyph unicode="\" horiz-adv-x="724" d="M74 1446l467 -1483h123l-469 1483h-121z" />
<glyph unicode="]" horiz-adv-x="598" d="M47 -313v-129h383v1939h-383v-127h250v-1683h-250z" />
<glyph unicode="^" horiz-adv-x="1492" d="M319 717h156l275 561l268 -561h156l-357 729h-129z" />
<glyph unicode="_" horiz-adv-x="1024" d="M-20 -301v-121h1064v121h-1064z" />
<glyph unicode="`" horiz-adv-x="768" d="M-197 1432l291 -297h88l-153 297h-226z" />
<glyph unicode="a" d="M84 303q0 -27 10 -82t58 -115q37 -43 80.5 -69.5t94 -39.5t103.5 -18.5t107 -5.5q160 0 266 35t160 66q29 14 57.5 34.5t52.5 38.5q2 -6 5 -23.5t11.5 -39t23.5 -43t42 -33.5q12 -6 32.5 -11t53.5 -5t62.5 2t60.5 6v104q-18 0 -41 -1t-44.5 4.5t-38.5 15.5t-28 31 q-10 23 -12 48t-2 48v436q-2 61 -12 116.5t-56 106.5q-55 61 -174.5 96t-306.5 35q-12 0 -51 -1t-93 -7t-113.5 -21.5t-110.5 -41.5q-53 -29 -86 -64t-53.5 -70.5t-30 -66.5t-15.5 -51l144 -8q10 33 22 60.5t35 51.5q14 16 29.5 27.5t31.5 21.5q43 23 115 35.5t182 12.5 q141 0 242.5 -24t140.5 -77q25 -35 30 -73.5t5 -79.5q-154 -2 -287 -5.5t-242.5 -14.5t-193.5 -32.5t-139 -58.5q-59 -43 -93 -109.5t-34 -140.5zM229 299q0 39 11.5 64.5t19.5 37.5q35 47 94.5 76t171.5 45q47 6 100.5 11.5t119 8.5t145.5 5t182 2v-64q0 -33 -3 -66.5 t-11 -65t-23 -58.5q-27 -47 -63.5 -73.5t-52.5 -35.5q-55 -33 -111.5 -51t-106 -27.5t-89.5 -11.5t-60 -2q-4 0 -35 1t-73 8.5t-86 23.5t-76 45q-35 35 -44.5 73t-9.5 54z" />
<glyph unicode="b" horiz-adv-x="1449" d="M147 0h136v158q6 -8 11 -14.5t11 -12.5q14 -16 32.5 -29.5t35.5 -23.5q84 -51 179 -76t193 -25q92 0 184.5 21.5t172.5 68t140.5 117t88.5 168.5q10 37 15.5 76t5.5 76q0 23 -4.5 66.5t-19.5 97t-47 111t-85 106.5q-59 55 -127 85.5t-129 46t-111.5 18.5t-72.5 3 q-84 0 -151.5 -13t-121 -33.5t-92.5 -45t-63 -47.5q-16 -16 -26.5 -28.5t-16.5 -22.5l-2 598h-136v-1446zM281 500q0 115 29.5 183.5t64.5 102.5q61 63 152.5 92t177.5 33q23 0 78 -2t120.5 -20.5t132 -60.5t113.5 -119q39 -66 47 -120t8 -83q0 -47 -9 -85t-13 -54 q-10 -31 -27.5 -64t-40.5 -59q-20 -23 -53 -48.5t-79 -47t-106.5 -37t-134.5 -15.5q-14 0 -54 2t-90 12.5t-105.5 33t-100.5 63.5q-41 37 -62.5 82t-32.5 87t-13 75.5t-2 48.5z" />
<glyph unicode="c" d="M82 512q0 -131 44 -221t105.5 -148.5t126 -90.5t105.5 -44q78 -23 137 -27t90 -4q27 0 81 3.5t122 19.5t141.5 49t139.5 94q47 45 82.5 95.5t70.5 105.5l-135 51q-10 -23 -34.5 -67.5t-72.5 -91.5q-35 -35 -81 -60.5t-96 -43t-102 -27t-101 -9.5q-23 0 -75 5t-114.5 27 t-125 65t-105.5 120q-35 63 -43.5 117.5t-8.5 83.5q0 78 21.5 133t38.5 82q14 25 37.5 54.5t60.5 57t89 50t122 35.5q35 6 65.5 8t41.5 2q104 0 175.5 -24.5t106.5 -47.5q20 -12 40 -27.5t24 -19.5q49 -43 76.5 -82t39.5 -61l136 55q-20 33 -35 54.5t-41 50.5 q-68 76 -144.5 119.5t-148.5 66t-131 28t-94 5.5q-131 0 -267.5 -47.5t-230.5 -145.5q-47 -49 -72.5 -101t-40 -99.5t-17.5 -85t-3 -62.5z" />
<glyph unicode="d" horiz-adv-x="1449" d="M90 512q0 -111 31 -184.5t55 -108.5q43 -63 103.5 -109.5t130 -77t145.5 -46t150 -15.5q147 0 244.5 39t144.5 76q23 16 38 31.5t33 36.5v-154h135v1446h-135v-596q-12 20 -32.5 45t-65.5 53q-53 33 -107.5 52.5t-102.5 28.5t-87 11t-57 2q-119 0 -230.5 -33.5 t-198.5 -101t-140.5 -167t-53.5 -228.5zM242 506q0 35 8 88t36.5 108.5t83 106.5t146.5 84q59 20 105 26.5t69 8.5q18 0 59.5 -1t91.5 -12.5t106.5 -36t105.5 -67.5q8 -6 21 -18.5t28 -34.5q35 -53 49 -116.5t14 -125.5q0 -10 -1 -40t-7 -68.5t-19.5 -80.5t-39.5 -79 q-31 -43 -75 -74t-94 -49.5t-103.5 -27.5t-102.5 -9q-23 0 -78 4t-120.5 26.5t-130 68.5t-107.5 130q-31 59 -38 112.5t-7 76.5z" />
<glyph unicode="e" d="M96 528q0 -139 63.5 -256.5t176.5 -191.5q55 -37 111.5 -58.5t105.5 -31.5t89 -13.5t63 -3.5q70 0 129 11.5t106 27t83 32.5t58 32q84 53 132.5 112.5t70.5 87.5l-106 76q-16 -25 -23.5 -37t-17.5 -24q-53 -68 -113.5 -108t-117 -60.5t-106.5 -25.5t-81 -5 q-92 0 -176 25.5t-149.5 76t-107.5 125t-48 173.5h1046q-8 84 -19.5 130t-27.5 87q-29 59 -59.5 99t-49.5 58q-61 61 -128.5 97t-131 54.5t-115 22.5t-79.5 4q-80 0 -146.5 -15t-119 -36.5t-90 -46t-60.5 -45.5q-80 -70 -121 -169t-41 -204zM242 606q8 41 15 60.5t17 40.5 q10 16 31 48.5t60 67.5q66 59 139.5 83t159.5 24q111 0 177 -25.5t107 -50.5q139 -90 172 -248h-878z" />
<glyph unicode="f" horiz-adv-x="724" d="M20 907h201v-907h135v907h342v105h-342v166q4 72 16.5 106.5t45.5 54.5q31 20 62.5 21.5t41.5 1.5q27 0 47.5 -1t40 -3t40 -6t46.5 -11l2 119q-68 16 -115.5 18.5t-76.5 2.5q-66 0 -124 -13.5t-103 -64.5q-39 -45 -47.5 -91t-10.5 -102v-198h-201v-105z" />
<glyph unicode="g" horiz-adv-x="1409" d="M82 512q0 -119 34 -204t83 -143.5t104 -92t96 -52.5q66 -27 129.5 -37t133.5 -12q152 0 253 40t148 77q25 18 44 41t26 31v-44q0 -91 -7 -148q-8 -72 -41 -124q-31 -47 -76.5 -69.5t-99.5 -36.5q-74 -18 -137 -22.5t-90 -4.5q-94 0 -165 15.5t-101 31.5q-41 18 -63.5 40 t-35 44.5t-16.5 44t-6 39.5h-141q2 -14 3 -27.5t5 -27.5q16 -61 52 -112.5t89 -86.5q51 -31 114.5 -48t122 -24.5t101.5 -8.5t51 -1q70 0 117 6.5t76 10.5q20 4 69.5 15t103.5 39t104 78t75 130q12 37 17.5 74t7.5 69.5t2 57.5v34v908h-131l4 -148q-6 6 -22.5 23.5 t-39.5 34.5q-53 43 -112.5 67.5t-113.5 35.5t-97 14t-64 3q-47 0 -83 -3t-52 -7q-25 -4 -66 -13t-89 -29.5t-99 -55.5t-98 -90q-43 -49 -66.5 -98.5t-36 -93.5t-14.5 -79.5t-2 -60.5zM229 510q0 98 35 174t95.5 130t142.5 83t174 33h26q110 0 186 -31q85 -35 126 -68 q49 -39 85 -111.5t38 -207.5q0 -117 -33 -188.5t-68 -106.5q-66 -66 -163 -95.5t-187 -29.5q-25 0 -79 5t-116.5 27.5t-123 71t-99.5 132.5q-10 25 -24.5 69.5t-14.5 112.5z" />
<glyph unicode="h" horiz-adv-x="1449" d="M143 0h136v559q2 35 5 71t17 68q8 16 27.5 46t54.5 61q49 41 101.5 63.5t100.5 32.5t87 12t59 2q133 0 209 -25.5t123 -66.5q29 -23 56.5 -63.5t37.5 -118.5q4 -27 5 -53.5t3 -55.5v-532h133v553q-2 68 -9 129t-36 125q-23 47 -47 74.5t-41 40.5q-53 43 -117.5 66.5 t-124 34.5t-105.5 13t-58 2q-168 0 -280.5 -45t-162.5 -96q-12 -10 -20 -21.5t-18 -27.5v598h-136v-1446z" />
<glyph unicode="i" horiz-adv-x="425" d="M145 0h136v1012h-136v-1012zM145 1192h136v197h-136v-197z" />
<glyph unicode="j" horiz-adv-x="425" d="M-182 -365q18 -4 73.5 -14t116.5 -10q100 0 154.5 28.5t79 70.5t29.5 90t8 89v1123h-132v-1125q0 -29 -5 -56.5t-22.5 -49t-51 -35.5t-91.5 -14q-55 0 -96 10t-61 16zM147 1188h132v198h-132v-198z" />
<glyph unicode="k" d="M147 0h134v276l337 261l556 -537h200l-643 621l512 391h-205l-757 -576v1010h-134v-1446z" />
<glyph unicode="l" horiz-adv-x="425" d="M147 0h136v1446h-136v-1446z" />
<glyph unicode="m" horiz-adv-x="2390" d="M145 0h138v592q2 61 8 89t22 56q29 49 76 82t102.5 53.5t114 28.5t109.5 8q53 0 111.5 -8t110.5 -28.5t95 -57.5t68 -94q12 -33 17 -64.5t9 -97.5v-559h136v602q2 39 7 73t27 68q37 61 98.5 95t123 49.5t108.5 18.5t57 3q12 0 62.5 -3t112 -19.5t123 -55t94.5 -108.5 q23 -49 25.5 -95t4.5 -63v-565h133v598q-2 43 -5 79t-17 77q-16 41 -37.5 72.5t-44.5 54t-43 38t-33 23.5q-53 33 -109.5 52.5t-107.5 28.5t-90 11t-55 2q-158 0 -256.5 -39t-151.5 -77q-41 -29 -57.5 -47.5t-32.5 -41.5q-8 12 -27.5 38t-52.5 51q-53 43 -114.5 67.5 t-117 36.5t-98.5 14t-61 2t-59 -2t-93.5 -11t-110.5 -30.5t-112 -58.5q-18 -12 -35.5 -26.5t-33.5 -28.5v129h-138v-1012z" />
<glyph unicode="n" horiz-adv-x="1449" d="M145 0h136v588q2 18 5 60t31 87q20 33 48 57.5t61 45.5q45 27 117.5 50t193.5 23q137 0 222 -29.5t131 -72.5q49 -47 63 -101.5t18 -119.5v-588h136v559q-2 63 -8.5 122.5t-32.5 119.5q-29 61 -73 101t-89 64.5t-85 36t-58 15.5q-68 16 -123.5 19t-81.5 3 q-147 0 -242.5 -31.5t-146.5 -64.5q-29 -20 -53.5 -42.5t-30.5 -31.5l-2 142h-136v-1012z" />
<glyph unicode="o" horiz-adv-x="1449" d="M88 506q0 -41 14.5 -121t73.5 -168q45 -68 102.5 -109.5t111.5 -67.5t100.5 -38t70.5 -16q55 -10 96 -12.5t64 -2.5q117 0 209 24.5t159.5 62.5t113.5 82t73 83q57 86 70.5 161t13.5 114q0 29 -6 77t-25.5 104t-56.5 116.5t-101 111.5q-59 49 -123.5 76t-123 41t-105 17 t-69.5 3h-29q-49 0 -93 -5q-56 -7 -103.5 -18t-83 -24.5t-56 -23.5t-55.5 -31.5t-74 -55.5t-75 -83t-60 -113q-23 -59 -28 -110.5t-5 -73.5zM242 504q0 74 18.5 131t46 99t58 69.5t53.5 44.5q43 29 89 45t87 25.5t73 12.5t48 3q25 0 83 -5t126.5 -28.5t135 -74t109.5 -138.5 q20 -41 29.5 -88t9.5 -94q0 -18 -2 -47t-11 -65t-28.5 -75.5t-52.5 -78.5q-49 -57 -108.5 -88t-115.5 -45.5t-102.5 -17.5t-68.5 -3q-53 0 -108.5 9t-107.5 28.5t-99.5 50.5t-79.5 76q-29 37 -45.5 74.5t-24.5 73.5t-10 63.5t-2 42.5z" />
<glyph unicode="p" horiz-adv-x="1449" d="M152 -383h131v539q16 -16 35.5 -36t60.5 -48q35 -23 61.5 -36t42.5 -18q31 -12 98.5 -27.5t159.5 -15.5t166 17.5t131.5 44t98.5 57.5t67 56q51 49 80 101t44 101t19.5 90t4.5 66q0 96 -24.5 161.5t-41.5 96.5q-39 72 -94 124t-123 86t-143.5 49t-153.5 15 q-20 0 -70.5 -3t-114 -16t-133 -42t-128.5 -80q-14 -12 -19.5 -17t-23.5 -28v158h-131v-1395zM285 502q0 45 5 87t21 83q25 68 70 115t102.5 76.5t122.5 43t133 13.5q25 0 78 -4.5t115.5 -26t124 -67.5t102.5 -130q29 -59 35 -107t6 -75q0 -14 -2 -41t-10 -59.5t-22.5 -69.5 t-41.5 -70q-20 -27 -53 -56.5t-81 -55t-111.5 -42t-145.5 -16.5q-68 0 -124 12.5t-100 30t-76 39t-50 39.5q-37 37 -57.5 80t-29.5 82t-10 70.5t-1 48.5z" />
<glyph unicode="q" horiz-adv-x="1449" d="M92 512q0 -193 109.5 -325t290.5 -185q74 -23 131 -27t86 -4q141 0 232 34t138 65q18 12 36 26.5t50 42.5v-508h133v1381h-133v-140q-31 31 -49 45.5t-37 28.5q-55 37 -116.5 57.5t-116.5 30.5t-97 12.5t-61 2.5q-25 0 -78 -4.5t-119.5 -21.5t-137 -54t-130.5 -101 q-47 -49 -72.5 -103t-39 -102.5t-16.5 -88t-3 -62.5zM244 522q0 84 23.5 139.5t39.5 81.5q20 31 51 64t76 58.5t108.5 43t147.5 19.5q84 0 150.5 -14.5t118 -38t86 -54t55.5 -61.5q25 -35 38 -75t19 -75t8 -62.5t2 -37.5q0 -90 -20.5 -151.5t-51 -103.5t-68.5 -67.5 t-75 -42.5q-76 -35 -139 -42t-94 -7q-20 0 -58 3t-86.5 14.5t-100.5 35t-99 66.5q-20 18 -43 45t-42.5 63.5t-32.5 86t-13 112.5z" />
<glyph unicode="r" horiz-adv-x="811" d="M145 0h136v565q0 8 2 39t12 60q4 14 20.5 54t49.5 75q16 18 44.5 38.5t68.5 38t90 28.5t112 11q27 0 52.5 -2t51.5 -6l2 141q-22 0 -68 1h-11q-41 0 -95 -7q-60 -8 -126 -31.5t-128 -72.5q-33 -25 -50 -48.5t-27 -35.5v164h-136v-1012z" />
<glyph unicode="s" horiz-adv-x="1280" d="M61 250q2 -6 7.5 -21.5t9.5 -19.5q12 -27 37 -55q66 -84 198.5 -131.5t358.5 -47.5q152 0 247 28t150 65q43 29 69.5 61.5t41 63t19.5 59.5t5 51q0 53 -16.5 92t-40 66.5t-48 44t-38.5 24.5q-78 39 -205 48.5t-317 19.5q-72 4 -121 8t-78 12.5t-47.5 23.5t-28.5 31.5 t-14 33t-4 28.5q0 14 7 42t36 57q27 29 68.5 46t86.5 26t90.5 12.5t81.5 3.5q39 0 90.5 -4.5t103.5 -14.5t100 -27.5t79 -44.5q18 -16 28.5 -33.5t14.5 -25.5l150 31q-18 39 -39 66.5t-56 56.5q-49 37 -108 61q-80 31 -175 42t-179 11q-135 0 -222.5 -18t-140.5 -47 t-84 -63.5t-46 -69.5t-20.5 -67t-5.5 -52q0 -57 19.5 -98t46.5 -68t54.5 -42t43.5 -21q39 -14 90.5 -21.5t115 -11.5t141 -7t171.5 -10q98 -6 158 -18t92 -51q18 -23 23.5 -43.5t5.5 -30.5q0 -29 -9 -50.5t-22.5 -37.5t-26 -26.5t-18.5 -14.5q-43 -29 -97 -44t-103.5 -21.5 t-85 -7.5t-41.5 -1q-111 0 -191 16.5t-119 32.5q-35 16 -67.5 40t-55.5 55l-12 20t-10 21z" />
<glyph unicode="t" horiz-adv-x="641" d="M18 907h193v-506q0 -121 7 -192.5t40 -122.5q41 -66 104.5 -87.5t135.5 -21.5q41 0 67.5 4.5t67.5 10.5v110q-23 -2 -45.5 -4t-44.5 -2q-53 0 -87 12.5t-50 28.5q-41 41 -50.5 107.5t-9.5 181.5v481h287v105h-287v409l-135 -63v-346h-193v-105z" />
<glyph unicode="u" horiz-adv-x="1449" d="M145 446q0 -47 3.5 -82.5t7.5 -63.5t11 -50.5t17 -44.5q31 -72 85.5 -117t121 -70.5t140 -35t141.5 -9.5q154 0 253 34t152 67q33 20 58.5 41.5t35.5 29.5v-145h134v1012h-134v-602q-2 -41 -7 -74t-29 -70q-33 -49 -89.5 -80.5t-121 -51t-131 -28t-119.5 -8.5 q-129 0 -210 32t-120 77q-45 53 -54 119.5t-9 132.5v553h-136v-566z" />
<glyph unicode="v" horiz-adv-x="1150" d="M4 1012l512 -1012h125l512 1012h-154l-419 -862l-422 862h-154z" />
<glyph unicode="w" horiz-adv-x="1748" d="M0 1012l418 -1012h129l327 856l334 -856h129l410 1012h-139l-334 -846l-328 846h-141l-324 -846l-336 846h-145z" />
<glyph unicode="x" horiz-adv-x="1150" d="M-8 0h178l405 432l406 -432h178l-502 526l463 486h-174l-371 -394l-370 394h-182l469 -486z" />
<glyph unicode="y" horiz-adv-x="1150" d="M0 1012l543 -1067q-29 -72 -63 -126.5t-111 -80.5q-47 -16 -86 -18.5t-56 -2.5q-31 0 -56.5 2t-48 6.5t-46 11.5t-53.5 17v-127q31 -6 55 -11t48 -8t48.5 -4t56.5 -1q70 0 148 11t135 56q57 43 93 117t63 135l477 1090h-146l-387 -918l-452 918h-162z" />
<glyph unicode="z" horiz-adv-x="1150" d="M23 0h1095v113h-907l907 805v94h-1030v-111h836l-901 -790v-111z" />
<glyph unicode="{" horiz-adv-x="724" d="M172 506q16 -4 41 -16.5t49 -45.5q37 -49 43 -108.5t6 -116.5v-334q0 -39 1 -81t8.5 -84t22.5 -80.5t46 -69.5q25 -27 53.5 -41t54 -22.5t46 -10.5t32.5 -2q16 -2 33 -3t33 -3v10q-55 16 -95 39t-69 80q-20 41 -25.5 87t-5.5 134v228q0 76 -1 134t-6 105t-19 83t-41 65 q-29 29 -55.5 40t-40.5 15q35 12 62.5 28.5t49.5 49.5q16 23 25.5 51.5t13.5 55t5 46t1 23.5q4 53 4 106v109v203q0 61 3.5 127.5t41.5 122.5q29 43 67 60t85 30v12q-29 -4 -74 -7t-73 -14q-10 -4 -37 -16t-54 -35q-57 -53 -73.5 -122.5t-18.5 -143.5v-346q0 -29 -1 -66 t-5 -76.5t-14 -75.5t-31 -61q-23 -29 -49.5 -39t-38.5 -14v-10z" />
<glyph unicode="|" horiz-adv-x="468" d="M174 -512h121v2044h-121v-2044z" />
<glyph unicode="}" horiz-adv-x="724" d="M84 -502v-10q29 2 74 5t73 13q10 4 37 16.5t54 37.5q57 53 73.5 122.5t18.5 141.5v45q0 20 2 43v258v66t4 77.5t14 75.5t31 62q23 29 50.5 38t37.5 13v10q-16 6 -41 18.5t-49 44.5q-37 49 -43 108.5t-6 117.5v332q0 39 -1 79.5t-7.5 81.5t-20.5 79t-43 69 q-27 29 -55.5 45t-56 24.5t-49 10.5t-34.5 4q-16 2 -31.5 3t-31.5 3v-12q27 -8 52.5 -17.5t47.5 -25.5q35 -25 53.5 -56.5t27.5 -63.5t11.5 -57.5t2.5 -35.5v-312q0 -74 1 -133t6 -105t19 -82t43 -65q27 -29 53.5 -41t40.5 -16q-14 -4 -49 -19.5t-63 -56.5q-27 -39 -35 -85 t-10 -91q-4 -53 -4 -108v-107v-205q0 -59 -3.5 -126.5t-41.5 -123.5q-29 -41 -67 -59t-85 -31z" />
<glyph unicode="~" horiz-adv-x="1492" d="M274 582l68 -113q18 25 36.5 48.5t40 43t48.5 30.5t61 11q27 0 55.5 -7t52 -16.5t41 -17.5t21.5 -10l60 -29q76 -35 115.5 -49t82.5 -14q59 0 123 30.5t140 126.5l-64 113q-39 -47 -85 -87t-112 -42q-31 0 -56 9t-77 32l-67 31q-53 27 -110.5 49t-119.5 22 q-57 0 -100 -20.5t-74.5 -48t-51 -54t-28.5 -38.5z" />
<glyph unicode="&#xa1;" horiz-adv-x="641" d="M203 1245h157v201h-157v-201zM209 0h145v580l-24 458h-94l-27 -415v-623z" />
<glyph unicode="&#xa3;" horiz-adv-x="1622" d="M76 221q0 -16 6 -50t31 -71q31 -43 73.5 -66.5t83.5 -35.5t75 -14t46 -2q61 0 113.5 13t93.5 31.5t69.5 39t45.5 36.5q18 16 29.5 30.5t27.5 33.5q45 -35 94 -67.5t101.5 -58.5t107.5 -42t117 -16q84 0 131 21.5t76 43.5q45 37 71.5 83t39 89t15.5 78t3 51q4 47 0 94 h-127q2 -45 3 -77.5t-2 -59t-10.5 -48t-17.5 -42.5q-18 -37 -40.5 -57.5t-47 -30.5t-46 -13t-36.5 -3q-45 0 -95 15t-99.5 38.5t-94.5 49.5t-82 48q8 33 14.5 58.5t6.5 58.5q0 45 -10.5 85t-24.5 71.5t-28.5 54t-22.5 33.5q-12 16 -25.5 31.5t-27.5 31.5h372v115h-475 q-16 16 -33.5 29.5t-33.5 29.5q-70 68 -91.5 122t-21.5 99q0 35 11.5 72t40 72t75.5 63.5t121 44.5q82 20 176 21q141 0 229 -37t129 -78q16 -16 47 -57t48 -105q8 -29 9 -47t3 -31h137q-4 25 -15 83.5t-46 123.5q-25 47 -68 94.5t-108.5 86t-156.5 62.5t-212 24 q-154 0 -251 -34t-150 -71q-14 -10 -41 -31.5t-52.5 -57.5t-45 -83t-19.5 -104t15.5 -104.5t37 -84.5t43 -62.5t33.5 -39.5h-324v-115h428q6 -6 33 -27.5t58.5 -57.5t59 -81t38.5 -96q4 -16 4 -37q0 -18 -4 -53q-86 41 -166 70.5t-178 29.5q-113 0 -176.5 -38t-88.5 -77 q-20 -29 -24 -56t-4 -42zM209 211q0 33 15.5 50.5t25.5 25.5q18 14 39.5 21t40 10.5t32.5 3.5h21q78 0 136.5 -24t80.5 -36q18 -10 36 -20.5t36 -20.5q-16 -16 -27.5 -26.5t-21.5 -18.5q-35 -27 -70 -42t-66.5 -22.5t-57.5 -9.5t-40 -2q-90 0 -134 32t-46 79z" />
<glyph unicode="&#xa4;" d="M117 223l92 -92l153 150q16 -12 32 -23.5t34 -21.5q59 -35 122.5 -50.5t131.5 -15.5q98 0 164.5 24.5t97.5 45.5q16 10 29.5 20t27.5 21l152 -154l94 92l-151 154q6 8 18 25.5t27 41.5q25 39 38 78t19 73t8 61.5t2 43.5q0 68 -16 133.5t-49 120.5q-23 35 -45 64l151 151 l-94 95l-151 -150q-14 10 -27.5 20.5t-30.5 20.5q-80 47 -153.5 58.5t-108.5 11.5q-63 0 -114.5 -12.5t-91.5 -30t-68.5 -36t-47.5 -32.5l-149 147l-92 -92l149 -149q-14 -18 -33.5 -47t-37 -68t-29.5 -89t-12 -114q0 -66 12 -117t29.5 -90.5t37 -68.5t33.5 -49zM281 696 q0 86 30.5 160t85 128t128 85t159.5 31q68 0 120 -17.5t92 -42t66.5 -51t41.5 -45.5q29 -37 45 -75t23 -70.5t9 -59.5t2 -43q0 -70 -16 -123t-41 -93t-52.5 -67.5t-47.5 -43.5q-72 -53 -137.5 -65.5t-100.5 -12.5q-86 0 -159.5 30.5t-129 85t-87 129t-31.5 160.5z" />
<glyph unicode="&#xa6;" horiz-adv-x="468" d="M174 389v-780h121v780h-121zM174 631h121v780h-121v-780z" />
<glyph unicode="&#xa7;" horiz-adv-x="1409" d="M74 608q0 -45 8 -76.5t14 -48.5q23 -59 63 -100t82 -67.5t77.5 -40t52.5 -19.5q43 -14 87 -25.5t89 -21.5l190 -49q113 -29 177.5 -54.5t97.5 -76.5q16 -29 20 -53.5t6 -36.5q0 -47 -15 -80t-26 -45q-45 -61 -116.5 -85t-145.5 -26q-41 0 -80 5t-51 9q-70 12 -122 24.5 t-93 27t-73.5 29t-63.5 26.5l-88 -107q100 -41 188 -72.5t197 -50.5q57 -10 102 -12t68 -2q86 0 152.5 16.5t114.5 42t81 57.5t55 62q41 61 51.5 113.5t10.5 79.5q0 59 -15.5 101t-48.5 89q37 23 55.5 35t34.5 29q41 39 65.5 84t37 87t15.5 76.5t3 53.5q0 49 -8 86t-14 55 q-41 109 -125 163t-189 89q-113 39 -228.5 63.5t-225.5 63.5q-10 2 -33 10t-44.5 24.5t-37.5 43t-16 70.5q-2 39 13 65.5t23 36.5q6 10 24.5 25.5t47.5 29.5q20 10 59 19.5t97 9.5q66 0 131 -14.5t121.5 -33t96.5 -35.5t52 -24l78 107q-16 6 -48 20.5t-76 32t-96 32.5 t-110 25q-31 4 -69.5 8.5t-71.5 4.5q-76 0 -134.5 -14.5t-101.5 -36t-72.5 -50t-49.5 -55.5q-37 -53 -46.5 -100t-9.5 -70q0 -12 4 -47t25 -72q8 -16 15 -24t12 -13q-14 -8 -37 -19t-51 -36q-39 -31 -65 -62.5t-43 -62t-26.5 -57.5t-13.5 -45q-4 -10 -9 -41t-5 -70zM213 618 q0 51 15.5 94.5t37 76t42 54t32.5 31.5q23 16 47.5 32t28.5 20q66 -29 107.5 -41.5t74.5 -20.5q47 -14 93 -25.5t93 -23.5q37 -10 78 -19.5t82 -22.5t79 -30.5t69 -40.5q14 -10 30.5 -26.5t31.5 -41t25.5 -58t10.5 -78.5q0 -33 -14.5 -95.5t-71.5 -126.5q-23 -23 -38 -35 t-40 -28q-23 10 -43 17.5t-43 15.5q-35 10 -67.5 19t-67.5 20q-66 18 -132.5 35.5t-131.5 33.5q-61 14 -105.5 26.5t-77 27t-57.5 34t-45 47.5q-10 16 -26.5 47t-16.5 82z" />
<glyph unicode="&#xa8;" horiz-adv-x="768" d="M-233 1165h143v197h-143v-197zM309 1165h144v197h-144v-197z" />
<glyph unicode="&#xa9;" horiz-adv-x="1705" d="M125 725q0 -35 5 -89t23.5 -120.5t55.5 -140.5t102 -144q104 -115 245.5 -176t297.5 -61q160 0 302 63.5t247 182.5q61 70 96 141.5t53.5 136t24.5 116.5t6 85q0 123 -31.5 221t-78 172t-96.5 123t-87 76q-66 49 -130 77.5t-122.5 42t-105.5 17.5t-76 4 q-117 0 -209 -28.5t-161.5 -68.5t-118 -85t-76.5 -78q-23 -27 -51.5 -69t-54 -100t-43 -133t-17.5 -165zM190 723q0 113 30 202t73 155.5t90 110.5t80 69q59 43 118.5 68.5t111.5 38.5t94 16t69 3q111 0 199 -28.5t152.5 -69.5t108.5 -86t68 -78q45 -61 72 -121.5t40 -113.5 t16.5 -97t3.5 -71q0 -106 -33 -204.5t-91.5 -181.5t-140.5 -145.5t-184 -95.5q-49 -16 -104.5 -25.5t-106.5 -9.5q-102 0 -196.5 29t-175.5 83t-144.5 130t-99.5 170q-49 119 -50 252zM395 723q0 -141 71 -256t202 -174q66 -29 117 -35t77 -6q74 0 132.5 18.5t103.5 43 t75.5 52t47.5 46.5q8 8 14 16l12 16l-86 74q-27 -31 -39 -44t-30 -28q-23 -18 -80.5 -47.5t-143.5 -29.5q-111 0 -200.5 61.5t-128.5 165.5q-25 61 -25 131q0 49 11.5 91t26.5 74t33.5 54.5t30.5 34.5q49 51 116 77.5t136 26.5q63 0 111.5 -17t84.5 -42t59.5 -51.5 t37.5 -42.5l88 80q-10 12 -21 25.5t-24 25.5q-47 47 -96 74.5t-93 42t-83 18.5t-64 4q-102 0 -188 -37t-149.5 -101.5t-99.5 -152.5t-36 -188z" />
<glyph unicode="&#xab;" horiz-adv-x="1067" d="M113 584l409 -355v119l-278 291l278 289v119l-409 -351v-112zM541 584l415 -359v117l-282 297l282 297v115l-415 -355v-112z" />
<glyph unicode="&#xac;" d="M0 537h1243v-537h123v657h-1366v-120z" />
<glyph unicode="&#xad;" horiz-adv-x="768" d="M106 645h564v127h-564v-127z" />
<glyph unicode="&#xae;" horiz-adv-x="1705" d="M125 725q0 -121 30.5 -217t74.5 -168t93.5 -121t84.5 -76q96 -72 209.5 -110.5t236.5 -38.5q39 0 103.5 8t140.5 33.5t157.5 77t153.5 137.5q57 68 92 137.5t53.5 132t23.5 114.5t5 85q2 121 -34 231.5t-107 208.5q-106 143 -259 218t-327 75q-117 0 -209 -28.5 t-161.5 -68.5t-118 -85t-76.5 -78q-23 -27 -51.5 -69t-54 -100t-43 -133t-17.5 -165zM190 723q0 113 30 202t73 155.5t90 110.5t80 69q59 43 118.5 68.5t111.5 38.5t94 16t69 3q113 0 201 -29.5t153.5 -70.5t109.5 -87t69 -79q45 -61 70.5 -120.5t38.5 -112.5t16.5 -96 t3.5 -70q0 -104 -32 -201.5t-88.5 -179.5t-137 -144.5t-181.5 -97.5q-76 -27 -134 -33t-89 -6q-102 0 -196.5 29t-175.5 83t-144.5 130t-99.5 170q-49 119 -50 252zM561 270h133v424h66q41 0 73.5 -3t69.5 -19q41 -20 61.5 -55t32.5 -117q6 -45 11.5 -78t10.5 -59.5t12 -48 t18 -42.5l153 -2q-31 63 -42 124t-15 81q-10 61 -23.5 124t-66.5 103q-16 12 -32.5 19.5t-33.5 13.5q31 6 51.5 13.5t34.5 13.5q14 8 33.5 22.5t38 37t32 55t13.5 77.5q0 55 -19.5 92t-31.5 54q-29 33 -65 50t-74.5 24.5t-79.5 7.5h-80h-281v-912zM696 801v278h123 q86 0 134 -6t77 -45q14 -18 20.5 -39.5t6.5 -44.5q0 -47 -18.5 -74.5t-34.5 -38.5q-20 -12 -46 -19t-48.5 -9t-41.5 -2h-18h-154z" />
<glyph unicode="&#xb0;" horiz-adv-x="724" d="M61 1231q0 -61 24 -116.5t64.5 -96.5t95 -64.5t117.5 -23.5q90 0 166 49t111 133q16 39 20.5 70.5t4.5 48.5q0 61 -24 116.5t-64.5 96.5t-95.5 64.5t-118 23.5q-61 0 -116.5 -23.5t-96 -64.5t-64.5 -96.5t-24 -116.5zM184 1229q0 76 52 127t124 53q76 0 127.5 -51 t51.5 -127q0 -74 -50.5 -126t-126.5 -52q-37 0 -69.5 14t-56 37.5t-38 55.5t-14.5 69z" />
<glyph unicode="&#xb1;" d="M84 0h1198v121h-1198v-121zM84 776h541v-524h120v524h537v121h-537v524h-120v-524h-541v-121z" />
<glyph unicode="&#xb4;" horiz-adv-x="768" d="M31 1137h88l295 297h-224z" />
<glyph unicode="&#xb6;" d="M184 1051q0 -117 55.5 -213.5t172.5 -139.5q31 -10 58.5 -14t39.5 -6v-1020h94v1698h322v-1698h94v1698h67v90h-452q-47 0 -93 -4t-91 -19q-88 -29 -153 -90t-93 -149q-16 -45 -18.5 -80t-2.5 -53z" />
<glyph unicode="&#xb7;" horiz-adv-x="382" d="M70 594q0 -35 19.5 -66.5t51.5 -46.5q4 -4 17.5 -7t29.5 -3q51 -2 88 34t37 87q0 37 -20.5 68.5t-54.5 46.5q-14 6 -25.5 7t-19.5 1q-49 0 -86 -35t-37 -86z" />
<glyph unicode="&#xb8;" horiz-adv-x="768" d="M-49 -340v-68q63 -8 94 -10t66 -2q88 0 136 18.5t77 51.5q31 37 30 84q0 33 -10 52t-18 30q-20 25 -47 37t-51.5 17t-44 6t-25.5 1v162h-92v-238h38q23 0 45.5 -5t41 -15t28.5 -29q4 -8 5 -16t1 -12q0 -18 -9 -29.5t-21.5 -19t-23.5 -11.5t-13 -4q-23 -8 -80 -8 q-33 0 -63.5 2t-63.5 6z" />
<glyph unicode="&#xbb;" horiz-adv-x="1067" d="M109 229l413 355v114l-413 355v-117l280 -297l-280 -295v-115zM543 231l409 355v108l-409 355v-119l276 -291l-276 -289v-119z" />
<glyph unicode="&#xbf;" horiz-adv-x="1449" d="M104 424q0 -106 33 -171t62 -99q57 -70 129.5 -108t142.5 -55.5t125 -20.5t78 -3q174 0 314 65.5t231 223.5q23 41 37 77t30 79l-121 45q-16 -47 -36.5 -96.5t-51.5 -90.5q-18 -25 -52 -56.5t-84 -59t-115.5 -47t-147.5 -19.5q-80 0 -144.5 15.5t-112.5 40t-82 54 t-52 58.5q-35 53 -41 102.5t-6 71.5q0 20 4 53t19.5 70t46 73t81.5 64q25 12 54.5 23.5t56 20.5t46 15.5t21.5 6.5q37 10 73 21t67.5 27.5t55 43t34.5 70.5q4 25 6 50t4 74l-127 2q-2 -47 -6 -71.5t-21 -42.5q-12 -14 -34.5 -25.5t-48 -19.5t-50 -15.5t-41.5 -11.5 q-115 -33 -178 -71.5t-100 -79.5q-35 -41 -54.5 -84t-29.5 -81t-12.5 -70t-2.5 -48zM668 1245h155v201h-155v-201z" />
<glyph unicode="&#xc0;" horiz-adv-x="1622" d="M12 0h146l184 375h932l186 -375h150l-729 1446h-156zM397 489l406 828l414 -828h-820zM483 1843l305 -258h99l-176 258h-228z" />
<glyph unicode="&#xc1;" horiz-adv-x="1622" d="M12 0h146l184 375h932l186 -375h150l-729 1446h-156zM397 489l406 828l414 -828h-820zM733 1585h92l310 258h-230z" />
<glyph unicode="&#xc2;" horiz-adv-x="1622" d="M12 0h146l184 375h932l186 -375h150l-729 1446h-156zM397 489l406 828l414 -828h-820zM502 1585h129l182 158l174 -158h131l-221 258h-162z" />
<glyph unicode="&#xc3;" horiz-adv-x="1622" d="M12 0h146l184 375h932l186 -375h150l-729 1446h-156zM389 1657l55 -37q35 37 66 60.5t84 23.5q39 0 81 -11.5t48 -13.5q66 -18 129 -38.5t129 -20.5q94 0 151.5 46t104.5 122l-66 24q-12 -23 -42.5 -52t-96.5 -29q-43 0 -82 12t-80 24q-6 2 -28.5 8.5t-54 13.5t-68.5 12 t-72 5q-43 0 -79 -11t-62.5 -26.5t-45 -33t-28.5 -27.5q-10 -12 -21.5 -25.5t-21.5 -25.5zM397 489l406 828l414 -828h-820z" />
<glyph unicode="&#xc4;" horiz-adv-x="1622" d="M14 0h144l184 375h932l186 -375h150l-729 1446h-156zM399 489l404 832l411 -832h-815zM399 1634h146v197h-146v-197zM1061 1634h145v197h-145v-197z" />
<glyph unicode="&#xc5;" horiz-adv-x="1622" d="M14 0h144l184 375h932l186 -375h150l-729 1446h-156zM397 489l406 832l411 -832h-817zM567 1696q0 -18 5.5 -40t18.5 -43.5t36.5 -41t60.5 -33.5q39 -14 68.5 -16t46.5 -2q59 0 119.5 23.5t89.5 76.5q4 10 12 31.5t8 50.5q0 31 -13 61.5t-42 55t-75 39t-109 12.5 q-6 0 -32 -3t-57.5 -13.5t-63.5 -30t-52 -54.5q-14 -23 -17.5 -44t-3.5 -29zM674 1694q0 33 27.5 61.5t93.5 30.5q70 2 99.5 -27.5t29.5 -62.5q0 -25 -12.5 -42.5t-31 -26.5t-41 -13t-40.5 -4q-66 0 -95.5 25.5t-29.5 58.5z" />
<glyph unicode="&#xc6;" horiz-adv-x="2304" d="M-25 0h156l254 356h674v-356h1163v121h-1026v563h913v123h-913v520h997v119h-1181zM467 471l604 856q-10 -41 -10 -59v-43v-754h-594z" />
<glyph unicode="&#xc7;" horiz-adv-x="1662" d="M84 729q0 -186 80 -347t227 -271q33 -25 80 -51.5t108.5 -48t140.5 -35t177 -13.5q102 0 185 16.5t147.5 41t113 53t82.5 53.5q102 76 151.5 146.5t76.5 115.5l-125 60q-35 -55 -53.5 -80t-40.5 -52q-72 -80 -149 -125t-149.5 -68.5t-133 -28.5t-97.5 -5q-31 0 -85 4 t-121.5 22.5t-141.5 56.5t-139 103q-61 61 -97 127t-54.5 126.5t-23.5 109.5t-5 80q0 29 5 79t22.5 111.5t52 129t94.5 128.5q66 68 139.5 107t142 58.5t123.5 24.5t86 5q27 0 81 -4t122 -22.5t139.5 -55.5t134.5 -100q45 -45 74 -91.5t39 -62.5l123 68q-35 55 -69 100 t-83 90q-78 72 -164 113t-163.5 62.5t-141 26.5t-96.5 5q-43 0 -118.5 -8t-165 -37t-185.5 -86t-178 -158q-59 -70 -92 -139.5t-50.5 -133t-21.5 -115.5t-4 -85zM676 -408q63 -8 95 -10t67 -2q86 0 134 18.5t77 51.5q29 35 32 84q0 33 -11 52t-19 30q-20 25 -46 37t-50.5 17 t-45 6t-26.5 1v162h-90v-238h36q23 0 45.5 -5t41 -15t28.5 -29q4 -8 5 -16t1 -12q0 -18 -9 -29.5t-21.5 -19t-22.5 -11.5t-12 -4q-25 -8 -82 -8q-33 0 -63.5 2t-61.5 6z" />
<glyph unicode="&#xc8;" horiz-adv-x="1705" d="M170 0h1444v121h-1303v575h1149v123h-1149v508h1243v119h-1384v-1446zM526 1843l305 -258h99l-176 258h-228z" />
<glyph unicode="&#xc9;" horiz-adv-x="1705" d="M170 0h1444v121h-1303v575h1149v123h-1149v508h1243v119h-1384v-1446zM776 1585h92l308 258h-228z" />
<glyph unicode="&#xca;" horiz-adv-x="1705" d="M170 0h1444v121h-1303v575h1149v123h-1149v508h1243v119h-1384v-1446zM545 1585h129l182 158l174 -158h131l-221 258h-162z" />
<glyph unicode="&#xcb;" horiz-adv-x="1705" d="M170 0h1444v121h-1303v575h1149v123h-1149v508h1243v119h-1384v-1446zM453 1647h149v196h-149v-196zM1114 1647h150v196h-150v-196z" />
<glyph unicode="&#xcc;" horiz-adv-x="468" d="M-92 1843l305 -258h98l-176 258h-227zM168 0h137v1446h-137v-1446z" />
<glyph unicode="&#xcd;" horiz-adv-x="468" d="M158 1585h92l307 258h-227zM168 0h137v1446h-137v-1446z" />
<glyph unicode="&#xce;" horiz-adv-x="468" d="M-74 1585h129l183 158l174 -158h131l-221 258h-162zM168 0h137v1446h-137v-1446z" />
<glyph unicode="&#xcf;" horiz-adv-x="468" d="M-166 1647h150v196h-150v-196zM168 0h137v1446h-137v-1446zM496 1647h149v196h-149v-196z" />
<glyph unicode="&#xd1;" horiz-adv-x="1835" d="M170 0h129v1262l1239 -1262h129v1446h-129v-1268l-1239 1268h-129v-1446zM496 1657l55 -37q35 37 65.5 60.5t83.5 23.5q39 0 81 -11.5t48 -13.5q66 -18 129.5 -38.5t128.5 -20.5q94 0 151.5 46t104.5 122l-63 24q-14 -23 -44 -52t-95 -29q-45 0 -84 12t-80 24 q-6 2 -28.5 8.5t-54.5 13.5t-69 12t-71 5q-43 0 -79 -11t-62.5 -26.5t-45 -33t-28.5 -27.5q-10 -12 -21.5 -25.5t-21.5 -25.5z" />
<glyph unicode="&#xd2;" horiz-adv-x="1878" d="M86 725q0 -25 2 -64.5t11.5 -88t28.5 -104.5t52 -116q51 -92 119 -157.5t142.5 -108.5t149.5 -68.5t141.5 -38t119.5 -15.5t82 -3q43 0 124 7t178 36t200.5 89.5t191.5 164.5q55 68 89 138.5t50.5 133t21.5 114.5t5 83q0 27 -3 70t-15.5 96t-36 113.5t-62.5 121.5 q-82 129 -189.5 202t-214 108t-195.5 44t-134 9q-125 0 -247 -27.5t-227 -85t-189 -146.5t-136 -210q-41 -98 -50 -177t-9 -120zM238 719q0 109 27.5 193.5t66.5 148t82 106.5t73 66q59 43 123 69.5t120 40t101 18.5t68 5q80 2 147.5 -6t123 -23.5t97.5 -33t68 -31.5 q76 -41 127 -94.5t84 -107.5t49.5 -101t24.5 -78q12 -55 14 -93t2 -63q0 -35 -5 -94t-28.5 -131t-71.5 -147.5t-132 -139.5q-68 -49 -137.5 -77.5t-131 -42t-111.5 -16.5t-77 -3t-75 3t-108.5 15.5t-129 37t-133 67.5t-119.5 107.5t-92 156.5q-33 80 -40 149.5t-7 98.5z M612 1843l306 -258h98l-178 258h-226z" />
<glyph unicode="&#xd3;" horiz-adv-x="1878" d="M86 725q0 -25 2 -64.5t11.5 -88t28.5 -104.5t52 -116q51 -92 119 -157.5t142.5 -108.5t149.5 -68.5t141.5 -38t119.5 -15.5t82 -3q43 0 124 7t178 36t200.5 89.5t191.5 164.5q55 68 89 138.5t50.5 133t21.5 114.5t5 83q0 27 -3 70t-15.5 96t-36 113.5t-62.5 121.5 q-82 129 -189.5 202t-214 108t-195.5 44t-134 9q-125 0 -247 -27.5t-227 -85t-189 -146.5t-136 -210q-41 -98 -50 -177t-9 -120zM238 719q0 109 27.5 193.5t66.5 148t82 106.5t73 66q59 43 123 69.5t120 40t101 18.5t68 5q80 2 147.5 -6t123 -23.5t97.5 -33t68 -31.5 q76 -41 127 -94.5t84 -107.5t49.5 -101t24.5 -78q12 -55 14 -93t2 -63q0 -35 -5 -94t-28.5 -131t-71.5 -147.5t-132 -139.5q-68 -49 -137.5 -77.5t-131 -42t-111.5 -16.5t-77 -3t-75 3t-108.5 15.5t-129 37t-133 67.5t-119.5 107.5t-92 156.5q-33 80 -40 149.5t-7 98.5z M860 1585h94l308 258h-228z" />
<glyph unicode="&#xd4;" horiz-adv-x="1878" d="M86 725q0 -25 2 -64.5t11.5 -88t28.5 -104.5t52 -116q51 -92 119 -157.5t142.5 -108.5t149.5 -68.5t141.5 -38t119.5 -15.5t82 -3q43 0 124 7t178 36t200.5 89.5t191.5 164.5q55 68 89 138.5t50.5 133t21.5 114.5t5 83q0 27 -3 70t-15.5 96t-36 113.5t-62.5 121.5 q-82 129 -189.5 202t-214 108t-195.5 44t-134 9q-125 0 -247 -27.5t-227 -85t-189 -146.5t-136 -210q-41 -98 -50 -177t-9 -120zM238 719q0 109 27.5 193.5t66.5 148t82 106.5t73 66q59 43 123 69.5t120 40t101 18.5t68 5q80 2 147.5 -6t123 -23.5t97.5 -33t68 -31.5 q76 -41 127 -94.5t84 -107.5t49.5 -101t24.5 -78q12 -55 14 -93t2 -63q0 -35 -5 -94t-28.5 -131t-71.5 -147.5t-132 -139.5q-68 -49 -137.5 -77.5t-131 -42t-111.5 -16.5t-77 -3t-75 3t-108.5 15.5t-129 37t-133 67.5t-119.5 107.5t-92 156.5q-33 80 -40 149.5t-7 98.5z M629 1585h131l182 158l172 -158h133l-221 258h-162z" />
<glyph unicode="&#xd5;" horiz-adv-x="1878" d="M86 725q0 -25 2 -64.5t11.5 -88t28.5 -104.5t52 -116q51 -92 119 -157.5t142.5 -108.5t149.5 -68.5t141.5 -38t119.5 -15.5t82 -3q43 0 124 7t178 36t200.5 89.5t191.5 164.5q55 68 89 138.5t50.5 133t21.5 114.5t5 83q0 27 -3 70t-15.5 96t-36 113.5t-62.5 121.5 q-82 129 -189.5 202t-214 108t-195.5 44t-134 9q-125 0 -247 -27.5t-227 -85t-189 -146.5t-136 -210q-41 -98 -50 -177t-9 -120zM238 719q0 109 27.5 193.5t66.5 148t82 106.5t73 66q59 43 123 69.5t120 40t101 18.5t68 5q80 2 147.5 -6t123 -23.5t97.5 -33t68 -31.5 q76 -41 127 -94.5t84 -107.5t49.5 -101t24.5 -78q12 -55 14 -93t2 -63q0 -35 -5 -94t-28.5 -131t-71.5 -147.5t-132 -139.5q-68 -49 -137.5 -77.5t-131 -42t-111.5 -16.5t-77 -3t-75 3t-108.5 15.5t-129 37t-133 67.5t-119.5 107.5t-92 156.5q-33 80 -40 149.5t-7 98.5z M518 1657l55 -37q35 37 66 60.5t84 23.5q18 0 38.5 -3t39 -8t32 -9.5t17.5 -4.5q66 -18 130 -38.5t128 -20.5q94 0 152.5 46t105.5 122l-66 24q-14 -23 -43.5 -52t-95.5 -29q-45 0 -84 12t-80 24q-6 2 -28.5 8.5t-53 13.5t-67.5 12t-72 5q-43 0 -78.5 -11t-62.5 -26.5 t-45.5 -33t-28.5 -27.5q-12 -12 -22.5 -25.5t-20.5 -25.5z" />
<glyph unicode="&#xd6;" horiz-adv-x="1878" d="M86 725q0 -25 2 -64.5t11.5 -88t28.5 -104.5t52 -116q51 -92 119 -157.5t142.5 -108.5t149.5 -68.5t141.5 -38t119.5 -15.5t82 -3q43 0 124 7t178 36t200.5 89.5t191.5 164.5q55 68 89 138.5t50.5 133t21.5 114.5t5 83q0 27 -3 70t-15.5 96t-36 113.5t-62.5 121.5 q-82 129 -189.5 202t-214 108t-195.5 44t-134 9q-125 0 -247 -27.5t-227 -85t-189 -146.5t-136 -210q-41 -98 -50 -177t-9 -120zM238 719q0 109 27.5 193.5t66.5 148t82 106.5t73 66q59 43 123 69.5t120 40t101 18.5t68 5q80 2 147.5 -6t123 -23.5t97.5 -33t68 -31.5 q76 -41 127 -94.5t84 -107.5t49.5 -101t24.5 -78q12 -55 14 -93t2 -63q0 -35 -5 -94t-28.5 -131t-71.5 -147.5t-132 -139.5q-68 -49 -137.5 -77.5t-131 -42t-111.5 -16.5t-77 -3t-75 3t-108.5 15.5t-129 37t-133 67.5t-119.5 107.5t-92 156.5q-33 80 -40 149.5t-7 98.5z M535 1634h147v199h-147v-199zM1196 1634h150v199h-150v-199z" />
<glyph unicode="&#xd7;" d="M172 170l86 -84l424 424l426 -424l84 84l-424 426l424 422l-84 86l-426 -424l-424 424l-86 -86l424 -422z" />
<glyph unicode="&#xd8;" horiz-adv-x="1878" d="M74 82l69 -86l193 156q20 -16 38.5 -31t41.5 -31q33 -20 81 -45t111.5 -45t143 -34.5t178.5 -14.5q41 0 117.5 6t170 32.5t193.5 80t188 147.5q66 70 104 144.5t58.5 142t25.5 124t5 89.5q0 129 -30.5 214t-53.5 128q-29 59 -50.5 87t-43.5 50l182 150l-74 86l-188 -154 q-39 33 -78 59q-35 23 -63.5 37.5t-40.5 20.5q-68 31 -129.5 47t-113.5 23.5t-94 9.5t-69 2q-100 0 -181 -13.5t-145.5 -34t-113.5 -45t-84 -47.5q-115 -74 -181.5 -163t-101.5 -176t-45 -162.5t-10 -122.5q0 -74 12.5 -136.5t29.5 -112.5t35.5 -87t33 -59.5t30 -43 t31.5 -41.5zM233 715q0 111 29 187.5t47 111.5q63 121 152.5 189.5t180.5 102t169 42t119 8.5q78 0 144.5 -11.5t120.5 -29t95 -35.5t66 -33q23 -12 48.5 -31.5t27.5 -21.5l-1070 -877q-29 39 -49 76q-29 49 -44 98.5t-23 93.5t-10.5 77.5t-2.5 52.5zM440 238l1069 874 q33 -45 46.5 -67.5t25.5 -49.5q18 -43 29.5 -86t17.5 -79.5t7 -65.5t1 -43q0 -72 -11 -130.5t-28.5 -106.5t-37 -82.5t-33.5 -57.5q-27 -39 -75 -86t-119.5 -88t-167 -68.5t-218.5 -27.5q-158 0 -266.5 38t-159.5 68q-16 10 -33.5 22.5t-46.5 35.5z" />
<glyph unicode="&#xd9;" horiz-adv-x="1792" d="M162 610q2 -76 6 -148.5t31 -144.5q31 -84 79 -140t99 -91t98 -53.5t78 -26.5q55 -16 111.5 -24.5t105.5 -12.5t86 -5t53 -1q37 0 106.5 3t162.5 24q115 27 207 78t155 155q33 53 50.5 108.5t25.5 103.5t9 86t1 59v866h-131v-764q0 -145 -12.5 -228t-48.5 -147 q-33 -55 -80 -96t-116 -66.5t-161 -38t-215 -12.5q-201 0 -317.5 52.5t-171.5 129.5q-31 43 -47.5 91.5t-23.5 97.5t-7 100v103v778h-133v-836zM569 1843l305 -258h99l-176 258h-228z" />
<glyph unicode="&#xda;" horiz-adv-x="1792" d="M162 610q2 -76 6 -148.5t31 -144.5q31 -84 79 -140t99 -91t98 -53.5t78 -26.5q55 -16 111.5 -24.5t105.5 -12.5t86 -5t53 -1q37 0 106.5 3t162.5 24q115 27 207 78t155 155q33 53 50.5 108.5t25.5 103.5t9 86t1 59v866h-131v-764q0 -145 -12.5 -228t-48.5 -147 q-33 -55 -80 -96t-116 -66.5t-161 -38t-215 -12.5q-201 0 -317.5 52.5t-171.5 129.5q-31 43 -47.5 91.5t-23.5 97.5t-7 100v103v778h-133v-836zM819 1585h92l308 258h-228z" />
<glyph unicode="&#xdb;" horiz-adv-x="1792" d="M162 610q2 -76 6 -148.5t31 -144.5q31 -84 79 -140t99 -91t98 -53.5t78 -26.5q55 -16 111.5 -24.5t105.5 -12.5t86 -5t53 -1q37 0 106.5 3t162.5 24q115 27 207 78t155 155q33 53 50.5 108.5t25.5 103.5t9 86t1 59v866h-131v-764q0 -145 -12.5 -228t-48.5 -147 q-33 -55 -80 -96t-116 -66.5t-161 -38t-215 -12.5q-201 0 -317.5 52.5t-171.5 129.5q-31 43 -47.5 91.5t-23.5 97.5t-7 100v103v778h-133v-836zM588 1585h129l182 158l172 -158h133l-221 258h-162z" />
<glyph unicode="&#xdc;" horiz-adv-x="1792" d="M162 610q2 -76 6 -148.5t31 -144.5q31 -84 79 -140t99 -91t98 -53.5t78 -26.5q55 -16 111.5 -24.5t105.5 -12.5t86 -5t53 -1q37 0 106.5 3t162.5 24q115 27 207 78t155 155q33 53 50.5 108.5t25.5 103.5t9 86t1 59v866h-131v-764q0 -145 -12.5 -228t-48.5 -147 q-33 -55 -80 -96t-116 -66.5t-161 -38t-215 -12.5q-201 0 -317.5 52.5t-171.5 129.5q-31 43 -47.5 91.5t-23.5 97.5t-7 100v103v778h-133v-836zM494 1638h147v197h-147v-197zM1155 1638h148v197h-148v-197z" />
<glyph unicode="&#xdf;" horiz-adv-x="1449" d="M147 0h129v1022q4 76 12.5 114t26.5 72q20 35 45 55.5t39 30.5q41 25 93.5 39.5t98.5 20.5t81 7t41 1t47 -1t97 -10.5t115.5 -31t100.5 -62.5q35 -35 44 -70.5t9 -56.5q0 -74 -46 -123t-109 -71q-59 -20 -143.5 -24.5t-217.5 -4.5v-110q129 4 208 1t138 -14 q70 -12 129 -51q80 -53 107 -129t27 -168q0 -74 -19.5 -137t-59.5 -109.5t-99.5 -72t-137.5 -25.5q-43 0 -94 11.5t-86 39.5q-29 23 -45 52.5t-23.5 57.5t-9.5 50.5t-2 32.5h-131q0 -41 3 -73t17 -73q29 -78 80.5 -120.5t106.5 -63t104 -25t72 -4.5q84 0 147.5 16.5 t110.5 43t78 58.5t51 63q27 41 42 86t23.5 85t10.5 71.5t2 45.5q0 20 -4 65.5t-20.5 99t-53.5 108.5t-100 94q-35 23 -66 34t-72 21q23 6 43.5 13.5t40.5 19.5q16 8 40 26.5t45.5 47.5t37 68.5t15.5 93.5q0 72 -28 123t-64.5 84.5t-73.5 53t-56 27.5q-49 20 -101 31.5 t-97 18t-81 7.5t-50 1q-49 0 -92 -4t-60 -6q-70 -10 -122 -26.5t-91 -37t-67.5 -44.5t-49.5 -48q-29 -35 -46 -67.5t-25 -67.5t-11.5 -72t-3.5 -80v-1030z" />
<glyph unicode="&#xe0;" d="M84 303q0 -27 10 -82t58 -115q37 -43 80.5 -69.5t94 -39.5t103.5 -18.5t107 -5.5q160 0 266 35t160 66q29 14 57.5 34.5t52.5 38.5q2 -6 5 -23.5t11.5 -39t23.5 -43t42 -33.5q12 -6 32.5 -11t53.5 -5t62.5 2t60.5 6v104q-18 0 -41 -1t-44.5 4.5t-38.5 15.5t-28 31 q-10 23 -12 48t-2 48v436q-2 61 -12 116.5t-56 106.5q-55 61 -174.5 96t-306.5 35q-12 0 -51 -1t-93 -7t-113.5 -21.5t-110.5 -41.5q-53 -29 -86 -64t-53.5 -70.5t-30 -66.5t-15.5 -51l144 -8q10 33 22 60.5t35 51.5q14 16 29.5 27.5t31.5 21.5q43 23 115 35.5t182 12.5 q141 0 242.5 -24t140.5 -77q25 -35 30 -73.5t5 -79.5q-154 -2 -287 -5.5t-242.5 -14.5t-193.5 -32.5t-139 -58.5q-59 -43 -93 -109.5t-34 -140.5zM229 299q0 39 11.5 64.5t19.5 37.5q35 47 94.5 76t171.5 45q47 6 100.5 11.5t119 8.5t145.5 5t182 2v-64q0 -33 -3 -66.5 t-11 -65t-23 -58.5q-27 -47 -63.5 -73.5t-52.5 -35.5q-55 -33 -111.5 -51t-106 -27.5t-89.5 -11.5t-60 -2q-4 0 -35 1t-73 8.5t-86 23.5t-76 45q-35 35 -44.5 73t-9.5 54zM381 1432l289 -297h88l-154 297h-223z" />
<glyph unicode="&#xe1;" d="M84 303q0 -27 10 -82t58 -115q37 -43 80.5 -69.5t94 -39.5t103.5 -18.5t107 -5.5q160 0 266 35t160 66q29 14 57.5 34.5t52.5 38.5q2 -6 5 -23.5t11.5 -39t23.5 -43t42 -33.5q12 -6 32.5 -11t53.5 -5t62.5 2t60.5 6v104q-18 0 -41 -1t-44.5 4.5t-38.5 15.5t-28 31 q-10 23 -12 48t-2 48v436q-2 61 -12 116.5t-56 106.5q-55 61 -174.5 96t-306.5 35q-12 0 -51 -1t-93 -7t-113.5 -21.5t-110.5 -41.5q-53 -29 -86 -64t-53.5 -70.5t-30 -66.5t-15.5 -51l144 -8q10 33 22 60.5t35 51.5q14 16 29.5 27.5t31.5 21.5q43 23 115 35.5t182 12.5 q141 0 242.5 -24t140.5 -77q25 -35 30 -73.5t5 -79.5q-154 -2 -287 -5.5t-242.5 -14.5t-193.5 -32.5t-139 -58.5q-59 -43 -93 -109.5t-34 -140.5zM229 299q0 39 11.5 64.5t19.5 37.5q35 47 94.5 76t171.5 45q47 6 100.5 11.5t119 8.5t145.5 5t182 2v-64q0 -33 -3 -66.5 t-11 -65t-23 -58.5q-27 -47 -63.5 -73.5t-52.5 -35.5q-55 -33 -111.5 -51t-106 -27.5t-89.5 -11.5t-60 -2q-4 0 -35 1t-73 8.5t-86 23.5t-76 45q-35 35 -44.5 73t-9.5 54zM606 1137h88l295 297h-223z" />
<glyph unicode="&#xe2;" d="M84 303q0 -27 10 -82t58 -115q37 -43 80.5 -69.5t94 -39.5t103.5 -18.5t107 -5.5q160 0 266 35t160 66q29 14 57.5 34.5t52.5 38.5q2 -6 5 -23.5t11.5 -39t23.5 -43t42 -33.5q12 -6 32.5 -11t53.5 -5t62.5 2t60.5 6v104q-18 0 -41 -1t-44.5 4.5t-38.5 15.5t-28 31 q-10 23 -12 48t-2 48v436q-2 61 -12 116.5t-56 106.5q-55 61 -174.5 96t-306.5 35q-12 0 -51 -1t-93 -7t-113.5 -21.5t-110.5 -41.5q-53 -29 -86 -64t-53.5 -70.5t-30 -66.5t-15.5 -51l144 -8q10 33 22 60.5t35 51.5q14 16 29.5 27.5t31.5 21.5q43 23 115 35.5t182 12.5 q141 0 242.5 -24t140.5 -77q25 -35 30 -73.5t5 -79.5q-154 -2 -287 -5.5t-242.5 -14.5t-193.5 -32.5t-139 -58.5q-59 -43 -93 -109.5t-34 -140.5zM229 299q0 39 11.5 64.5t19.5 37.5q35 47 94.5 76t171.5 45q47 6 100.5 11.5t119 8.5t145.5 5t182 2v-64q0 -33 -3 -66.5 t-11 -65t-23 -58.5q-27 -47 -63.5 -73.5t-52.5 -35.5q-55 -33 -111.5 -51t-106 -27.5t-89.5 -11.5t-60 -2q-4 0 -35 1t-73 8.5t-86 23.5t-76 45q-35 35 -44.5 73t-9.5 54zM403 1124h111l170 174l168 -174h104l-211 271h-120z" />
<glyph unicode="&#xe3;" d="M84 303q0 -27 10 -82t58 -115q37 -43 80.5 -69.5t94 -39.5t103.5 -18.5t107 -5.5q160 0 266 35t160 66q29 14 57.5 34.5t52.5 38.5q2 -6 5 -23.5t11.5 -39t23.5 -43t42 -33.5q12 -6 32.5 -11t53.5 -5t62.5 2t60.5 6v104q-18 0 -41 -1t-44.5 4.5t-38.5 15.5t-28 31 q-10 23 -12 48t-2 48v436q-2 61 -12 116.5t-56 106.5q-55 61 -174.5 96t-306.5 35q-12 0 -51 -1t-93 -7t-113.5 -21.5t-110.5 -41.5q-53 -29 -86 -64t-53.5 -70.5t-30 -66.5t-15.5 -51l144 -8q10 33 22 60.5t35 51.5q14 16 29.5 27.5t31.5 21.5q43 23 115 35.5t182 12.5 q141 0 242.5 -24t140.5 -77q25 -35 30 -73.5t5 -79.5q-154 -2 -287 -5.5t-242.5 -14.5t-193.5 -32.5t-139 -58.5q-59 -43 -93 -109.5t-34 -140.5zM229 299q0 39 11.5 64.5t19.5 37.5q35 47 94.5 76t171.5 45q47 6 100.5 11.5t119 8.5t145.5 5t182 2v-64q0 -33 -3 -66.5 t-11 -65t-23 -58.5q-27 -47 -63.5 -73.5t-52.5 -35.5q-55 -33 -111.5 -51t-106 -27.5t-89.5 -11.5t-60 -2q-4 0 -35 1t-73 8.5t-86 23.5t-76 45q-35 35 -44.5 73t-9.5 54zM260 1260l57 -37q6 8 18.5 22.5t31 27.5t43 23.5t57.5 10.5q20 0 44 -5.5t45.5 -9.5t35.5 -9t16 -5 q59 -18 119.5 -37.5t126.5 -19.5q57 0 101 20.5t76 48t50.5 56t28.5 43.5l-63 24q-6 -8 -16.5 -22.5t-27 -27.5t-39 -23.5t-53.5 -10.5q-33 0 -66.5 9.5t-64.5 17.5q-94 27 -153.5 41t-104.5 14q-47 0 -85 -14.5t-67.5 -32.5t-49 -37.5t-29.5 -32.5q-8 -8 -15.5 -16 t-15.5 -18z" />
<glyph unicode="&#xe4;" d="M84 303q0 -27 10 -82t58 -115q37 -43 80.5 -69.5t94 -39.5t103.5 -18.5t107 -5.5q160 0 266 35t160 66q29 14 57.5 34.5t52.5 38.5q2 -6 5 -23.5t11.5 -39t23.5 -43t42 -33.5q12 -6 32.5 -11t53.5 -5t62.5 2t60.5 6v104q-18 0 -41 -1t-44.5 4.5t-38.5 15.5t-28 31 q-10 23 -12 48t-2 48v436q-2 61 -12 116.5t-56 106.5q-55 61 -174.5 96t-306.5 35q-12 0 -51 -1t-93 -7t-113.5 -21.5t-110.5 -41.5q-53 -29 -86 -64t-53.5 -70.5t-30 -66.5t-15.5 -51l144 -8q10 33 22 60.5t35 51.5q14 16 29.5 27.5t31.5 21.5q43 23 115 35.5t182 12.5 q141 0 242.5 -24t140.5 -77q25 -35 30 -73.5t5 -79.5q-154 -2 -287 -5.5t-242.5 -14.5t-193.5 -32.5t-139 -58.5q-59 -43 -93 -109.5t-34 -140.5zM229 299q0 39 11.5 64.5t19.5 37.5q35 47 94.5 76t171.5 45q47 6 100.5 11.5t119 8.5t145.5 5t182 2v-64q0 -33 -3 -66.5 t-11 -65t-23 -58.5q-27 -47 -63.5 -73.5t-52.5 -35.5q-55 -33 -111.5 -51t-106 -27.5t-89.5 -11.5t-60 -2q-4 0 -35 1t-73 8.5t-86 23.5t-76 45q-35 35 -44.5 73t-9.5 54zM332 1155h143v195h-143v-195zM877 1155h141v195h-141v-195z" />
<glyph unicode="&#xe5;" d="M84 303q0 -27 10 -82t58 -115q37 -43 80.5 -69.5t94 -39.5t103.5 -18.5t107 -5.5q160 0 266 35t160 66q29 14 57.5 34.5t52.5 38.5q2 -6 5 -23.5t11.5 -39t23.5 -43t42 -33.5q12 -6 32.5 -11t53.5 -5t62.5 2t60.5 6v104q-18 0 -41 -1t-44.5 4.5t-38.5 15.5t-28 31 q-10 23 -12 48t-2 48v436q-2 61 -12 116.5t-56 106.5q-55 61 -174.5 96t-306.5 35q-12 0 -51 -1t-93 -7t-113.5 -21.5t-110.5 -41.5q-53 -29 -86 -64t-53.5 -70.5t-30 -66.5t-15.5 -51l144 -8q10 33 22 59.5t35 52.5q14 16 29.5 27.5t31.5 21.5q43 23 115 35.5t182 12.5 q141 0 242.5 -24t140.5 -77q25 -35 30 -73.5t5 -79.5q-154 -2 -287 -5.5t-242.5 -14.5t-193.5 -32.5t-139 -58.5q-59 -43 -93 -109.5t-34 -140.5zM229 299q0 53 31 100q33 49 93.5 78t176.5 45q51 8 103.5 12.5t115 7.5t141.5 5t183 2v-64q0 -33 -3 -66.5t-11 -65t-23 -58.5 q-27 -47 -63.5 -73.5t-52.5 -35.5q-55 -33 -111.5 -51t-106 -27.5t-89.5 -11.5t-60 -2q-4 0 -35 1t-73 8.5t-86 23.5t-76 45q-35 35 -44.5 73t-9.5 54zM442 1290q0 -47 22.5 -80.5t56.5 -55t76 -31t79 -9.5q90 0 142 35t71 65q20 37 20 76q0 20 -7 46t-24.5 49.5t-48 43 t-79.5 29.5q-33 6 -53.5 7t-34.5 1q-8 0 -32 -3t-53.5 -13t-59.5 -28.5t-50 -49.5q-16 -27 -20.5 -48t-4.5 -34zM549 1290q-2 16 10 39t47 39q23 10 39.5 11t26.5 1q33 2 57.5 -6t40.5 -21.5t23.5 -29.5t7.5 -31q2 -35 -29 -61.5t-96 -26.5q-51 0 -78 14.5t-39 32.5 q-8 12 -9 23.5t-1 15.5z" />
<glyph unicode="&#xe6;" horiz-adv-x="2347" d="M82 311q0 -66 18.5 -109.5t32.5 -64.5q51 -78 158.5 -122t298.5 -44q184 0 296.5 38t178.5 87q53 41 73.5 72t30.5 59q6 -10 18.5 -31.5t35.5 -48.5q57 -66 133 -100.5t146.5 -52t125.5 -20.5t74 -3q25 0 82 4.5t129 23.5t146.5 60t133.5 113q12 14 28.5 40t37.5 67 l-107 69q-6 -16 -18 -41.5t-39 -58.5q-47 -57 -106.5 -89t-114.5 -47.5t-101.5 -18.5t-64.5 -3t-73.5 4t-121 24.5t-130 64.5t-103.5 126q-31 61 -35 114.5t-4 78.5h1018q-4 88 -17.5 142t-29.5 89q-33 80 -89.5 138.5t-128 96.5t-152.5 56t-163 18q-86 0 -156.5 -16 t-125 -40.5t-93 -53.5t-63.5 -53q-25 -31 -31 -41q-20 43 -36.5 62.5t-34.5 35.5q-59 49 -169 77.5t-284 28.5q-176 0 -280.5 -31.5t-165.5 -84.5q-33 -27 -53.5 -55.5t-34 -54t-19.5 -49.5t-10 -38l145 -14q4 16 15.5 47t40.5 63q33 33 65 49q39 20 86 32t90 16t74 5t37 1 q39 0 95 -4t113.5 -16.5t106.5 -36t76 -62.5q23 -33 30 -75t9 -120h-449q-53 0 -118.5 -1t-132 -10t-128 -28.5t-106.5 -56.5q-31 -27 -49.5 -57.5t-27.5 -60t-11 -53t-2 -36.5zM236 305q0 12 1 27.5t7 34t19 37t36 36.5q29 23 64.5 35t73.5 18.5t76 7.5t73 1h520 q-2 -57 -9 -111.5t-36 -107.5q-31 -55 -83 -93t-114.5 -62t-129 -33t-124.5 -9q-6 0 -38.5 1t-76.5 6t-93.5 18.5t-86.5 38.5q-29 18 -45 40.5t-23 44t-9 40t-2 30.5zM1247 614q10 39 18.5 68t30.5 63q29 47 73 81t95.5 56.5t107.5 33t109 10.5q18 0 64.5 -4t104 -21.5 t114.5 -53.5t96 -102q27 -43 34 -77.5t11 -53.5h-858z" />
<glyph unicode="&#xe7;" d="M82 512q0 -131 44 -221t105.5 -148.5t126 -90.5t105.5 -44q78 -23 137 -27t90 -4q27 0 81 3.5t122 19.5t141.5 49t139.5 94q47 45 82.5 95.5t70.5 105.5l-135 51q-10 -23 -34.5 -67.5t-72.5 -91.5q-35 -35 -81 -60.5t-96 -43t-102 -27t-101 -9.5q-23 0 -75 5t-114.5 27 t-125 65t-105.5 120q-35 63 -43.5 117.5t-8.5 83.5q0 78 21.5 133t38.5 82q14 25 37.5 54.5t60.5 57t89 50t122 35.5q35 6 65.5 8t41.5 2q104 0 175.5 -24.5t106.5 -47.5q20 -12 40 -27.5t24 -19.5q49 -43 76.5 -82t39.5 -61l136 55q-20 33 -35 54.5t-41 50.5 q-68 76 -144.5 119.5t-148.5 66t-131 28t-94 5.5q-131 0 -267.5 -47.5t-230.5 -145.5q-47 -49 -72.5 -101t-40 -99.5t-17.5 -85t-3 -62.5zM526 -408q66 -8 96.5 -10t65.5 -2q86 0 134 18.5t77 51.5q33 39 33 84q0 33 -10.5 52t-20.5 30q-20 25 -46 37t-50.5 17t-45 6 t-26.5 1v162h-90v-238h37t45.5 -5t40.5 -15t29 -29q4 -8 5 -16t1 -12q0 -18 -9.5 -29.5t-20.5 -19t-22.5 -11.5t-13.5 -4q-25 -8 -82 -8q-33 0 -63.5 2t-61.5 6z" />
<glyph unicode="&#xe8;" d="M96 528q0 -139 63.5 -256.5t176.5 -191.5q55 -37 111.5 -58.5t105.5 -31.5t89 -13.5t63 -3.5q70 0 129 11.5t106 27t83 32.5t58 32q84 53 132.5 112.5t70.5 87.5l-106 76q-16 -25 -23.5 -37t-17.5 -24q-53 -68 -113.5 -108t-117 -60.5t-106.5 -25.5t-81 -5 q-92 0 -176 25.5t-149.5 76t-107.5 125t-48 173.5h1046q-8 84 -19.5 130t-27.5 87q-29 59 -59.5 99t-49.5 58q-61 61 -128.5 97t-131 54.5t-115 22.5t-79.5 4q-80 0 -146.5 -15t-119 -36.5t-90 -46t-60.5 -45.5q-80 -70 -121 -169t-41 -204zM242 606q8 41 15 60.5t17 40.5 q10 16 31 48.5t60 67.5q66 59 139.5 83t159.5 24q111 0 177 -25.5t107 -50.5q139 -90 172 -248h-878zM381 1432l289 -297h88l-154 297h-223z" />
<glyph unicode="&#xe9;" d="M96 528q0 -139 63.5 -256.5t176.5 -191.5q55 -37 111.5 -58.5t105.5 -31.5t89 -13.5t63 -3.5q70 0 129 11.5t106 27t83 32.5t58 32q84 53 132.5 112.5t70.5 87.5l-106 76q-16 -25 -23.5 -37t-17.5 -24q-53 -68 -113.5 -108t-117 -60.5t-106.5 -25.5t-81 -5 q-92 0 -176 25.5t-149.5 76t-107.5 125t-48 173.5h1046q-8 84 -19.5 130t-27.5 87q-29 59 -59.5 99t-49.5 58q-61 61 -128.5 97t-131 54.5t-115 22.5t-79.5 4q-80 0 -146.5 -15t-119 -36.5t-90 -46t-60.5 -45.5q-80 -70 -121 -169t-41 -204zM242 606q8 41 15 60.5t17 40.5 q10 16 31 48.5t60 67.5q66 59 139.5 83t159.5 24q111 0 177 -25.5t107 -50.5q139 -90 172 -248h-878zM606 1137h88l295 297h-223z" />
<glyph unicode="&#xea;" d="M96 528q0 -139 63.5 -256.5t176.5 -191.5q55 -37 111.5 -58.5t105.5 -31.5t89 -13.5t63 -3.5q70 0 129 11.5t106 27t83 32.5t58 32q84 53 132.5 112.5t70.5 87.5l-106 76q-16 -25 -23.5 -37t-17.5 -24q-53 -68 -113.5 -108t-117 -60.5t-106.5 -25.5t-81 -5 q-92 0 -176 25.5t-149.5 76t-107.5 125t-48 173.5h1046q-8 84 -19.5 130t-27.5 87q-29 59 -59.5 99t-49.5 58q-61 61 -128.5 97t-131 54.5t-115 22.5t-79.5 4q-80 0 -146.5 -15t-119 -36.5t-90 -46t-60.5 -45.5q-80 -70 -121 -169t-41 -204zM242 606q8 41 15 60.5t17 40.5 q10 16 31 48.5t60 67.5q66 59 139.5 83t159.5 24q111 0 177 -25.5t107 -50.5q139 -90 172 -248h-878zM403 1124h111l170 174l168 -174h104l-211 271h-120z" />
<glyph unicode="&#xeb;" d="M96 528q0 -139 63.5 -256.5t176.5 -191.5q55 -37 111.5 -58.5t105.5 -31.5t89 -13.5t63 -3.5q70 0 129 11.5t106 27t83 32.5t58 32q84 53 132.5 112.5t70.5 87.5l-106 76q-16 -25 -23.5 -37t-17.5 -24q-53 -68 -113.5 -108t-117 -60.5t-106.5 -25.5t-81 -5 q-92 0 -176 25.5t-149.5 76t-107.5 125t-48 173.5h1046q-8 84 -19.5 130t-27.5 87q-29 59 -59.5 99t-49.5 58q-61 61 -128.5 97t-131 54.5t-115 22.5t-79.5 4q-80 0 -146.5 -15t-119 -36.5t-90 -46t-60.5 -45.5q-80 -70 -121 -169t-41 -204zM242 606q8 41 15 60.5t17 40.5 q10 16 31 48.5t60 67.5q66 59 139.5 83t159.5 24q111 0 177 -25.5t107 -50.5q139 -90 172 -248h-878zM342 1165h143v197h-143v-197zM887 1165h141v197h-141v-197z" />
<glyph unicode="&#xec;" horiz-adv-x="425" d="M-90 1432l291 -297h88l-154 297h-225zM145 0h136v1012h-136v-1012z" />
<glyph unicode="&#xed;" horiz-adv-x="425" d="M137 1137h88l295 297h-223zM145 0h136v1012h-136v-1012z" />
<glyph unicode="&#xee;" horiz-adv-x="425" d="M-66 1124h111l170 174l168 -174h104l-211 271h-120zM145 0h136v1012h-136v-1012z" />
<glyph unicode="&#xef;" horiz-adv-x="425" d="M-127 1165h143v197h-143v-197zM145 0h136v1012h-136v-1012zM416 1165h143v197h-143v-197z" />
<glyph unicode="&#xf1;" horiz-adv-x="1449" d="M145 0h136v588q2 18 5 60t31 87q20 33 48 57.5t61 45.5q45 27 117.5 50t193.5 23q137 0 222 -29.5t131 -72.5q49 -47 63 -101.5t18 -119.5v-588h136v559q-2 63 -8.5 122.5t-32.5 119.5q-29 61 -73 101t-89 64.5t-85 36t-58 15.5q-68 16 -123.5 19t-81.5 3 q-147 0 -242.5 -31.5t-146.5 -64.5q-29 -20 -53.5 -42.5t-30.5 -31.5l-2 142h-136v-1012zM303 1260l57 -37q6 8 18.5 22.5t31 27.5t43 23.5t57.5 10.5q20 0 44 -5.5t44 -9.5t34.5 -9t16.5 -5q59 -18 120.5 -37.5t127.5 -19.5q57 0 101 20.5t75 48t50.5 56t29.5 43.5l-63 24 q-6 -8 -16.5 -22.5t-27 -27.5t-39 -23.5t-53.5 -10.5q-33 0 -67.5 9.5t-63.5 17.5q-94 27 -153.5 41t-104.5 14q-47 0 -85 -14.5t-67.5 -32.5t-49 -37.5t-29.5 -32.5q-8 -8 -15.5 -16t-15.5 -18z" />
<glyph unicode="&#xf2;" horiz-adv-x="1449" d="M88 506q0 -41 14.5 -121t73.5 -168q45 -68 102.5 -109.5t111.5 -67.5t100.5 -38t70.5 -16q55 -10 96 -12.5t64 -2.5q117 0 209 24.5t159.5 62.5t113.5 82t73 83q57 86 70.5 161t13.5 114q0 29 -6 77t-25.5 104t-56.5 116.5t-101 111.5q-59 49 -123.5 76t-123 41t-105 17 t-69.5 3q-66 2 -122.5 -5t-103.5 -18t-82.5 -24.5t-56 -23.5t-55.5 -31.5t-74 -55.5t-75 -83t-60 -113q-23 -59 -28 -110.5t-5 -73.5zM242 504q0 74 18.5 131t46 99t58 69.5t53.5 44.5q43 29 89 45t87 25.5t73 12.5t48 3q25 0 83 -5t126.5 -28.5t135 -74t109.5 -138.5 q20 -41 29.5 -88t9.5 -94q0 -18 -2 -47t-11 -65t-28.5 -75.5t-52.5 -78.5q-49 -57 -108.5 -88t-115.5 -45.5t-102.5 -17.5t-68.5 -3q-53 0 -108.5 9t-107.5 28.5t-99.5 50.5t-79.5 76q-29 37 -45.5 74.5t-24.5 73.5t-10 63.5t-2 42.5zM422 1432l291 -297h88l-154 297h-225z " />
<glyph unicode="&#xf3;" horiz-adv-x="1449" d="M88 506q0 -41 14.5 -121t73.5 -168q45 -68 102.5 -109.5t111.5 -67.5t100.5 -38t70.5 -16q55 -10 96 -12.5t64 -2.5q117 0 209 24.5t159.5 62.5t113.5 82t73 83q57 86 70.5 161t13.5 114q0 29 -6 77t-25.5 104t-56.5 116.5t-101 111.5q-59 49 -123.5 76t-123 41t-105 17 t-69.5 3q-66 2 -122.5 -5t-103.5 -18t-82.5 -24.5t-56 -23.5t-55.5 -31.5t-74 -55.5t-75 -83t-60 -113q-23 -59 -28 -110.5t-5 -73.5zM242 504q0 74 18.5 131t46 99t58 69.5t53.5 44.5q43 29 89 45t87 25.5t73 12.5t48 3q25 0 83 -5t126.5 -28.5t135 -74t109.5 -138.5 q20 -41 29.5 -88t9.5 -94q0 -18 -2 -47t-11 -65t-28.5 -75.5t-52.5 -78.5q-49 -57 -108.5 -88t-115.5 -45.5t-102.5 -17.5t-68.5 -3q-53 0 -108.5 9t-107.5 28.5t-99.5 50.5t-79.5 76q-29 37 -45.5 74.5t-24.5 73.5t-10 63.5t-2 42.5zM649 1137h88l295 297h-223z" />
<glyph unicode="&#xf4;" horiz-adv-x="1449" d="M88 506q0 -41 14.5 -121t73.5 -168q45 -68 102.5 -109.5t111.5 -67.5t100.5 -38t70.5 -16q55 -10 96 -12.5t64 -2.5q117 0 209 24.5t159.5 62.5t113.5 82t73 83q57 86 70.5 161t13.5 114q0 29 -6 77t-25.5 104t-56.5 116.5t-101 111.5q-59 49 -123.5 76t-123 41t-105 17 t-69.5 3q-66 2 -122.5 -5t-103.5 -18t-82.5 -24.5t-56 -23.5t-55.5 -31.5t-74 -55.5t-75 -83t-60 -113q-23 -59 -28 -110.5t-5 -73.5zM242 504q0 74 18.5 131t46 99t58 69.5t53.5 44.5q43 29 89 45t87 25.5t73 12.5t48 3q25 0 83 -5t126.5 -28.5t135 -74t109.5 -138.5 q20 -41 29.5 -88t9.5 -94q0 -18 -2 -47t-11 -65t-28.5 -75.5t-52.5 -78.5q-49 -57 -108.5 -88t-115.5 -45.5t-102.5 -17.5t-68.5 -3q-53 0 -108.5 9t-107.5 28.5t-99.5 50.5t-79.5 76q-29 37 -45.5 74.5t-24.5 73.5t-10 63.5t-2 42.5zM446 1124h111l170 174l168 -174h104 l-211 271h-120z" />
<glyph unicode="&#xf5;" horiz-adv-x="1449" d="M88 506q0 -41 14.5 -121t73.5 -168q45 -68 102.5 -109.5t111.5 -67.5t100.5 -38t70.5 -16q55 -10 96 -12.5t64 -2.5q117 0 209 24.5t159.5 62.5t113.5 82t73 83q57 86 70.5 161t13.5 114q0 29 -6 77t-25.5 104t-56.5 116.5t-101 111.5q-59 49 -123.5 76t-123 41t-105 17 t-69.5 3q-66 2 -122.5 -5t-103.5 -18t-82.5 -24.5t-56 -23.5t-55.5 -31.5t-74 -55.5t-75 -83t-60 -113q-23 -59 -28 -110.5t-5 -73.5zM242 504q0 74 18.5 131t46 99t58 69.5t53.5 44.5q43 29 89 45t87 25.5t73 12.5t48 3q25 0 83 -5t126.5 -28.5t135 -74t109.5 -138.5 q20 -41 29.5 -88t9.5 -94q0 -18 -2 -47t-11 -65t-28.5 -75.5t-52.5 -78.5q-49 -57 -108.5 -88t-115.5 -45.5t-102.5 -17.5t-68.5 -3q-53 0 -108.5 9t-107.5 28.5t-99.5 50.5t-79.5 76q-29 37 -45.5 74.5t-24.5 73.5t-10 63.5t-2 42.5zM303 1260l57 -37q6 8 18.5 22.5 t31 27.5t43 23.5t57.5 10.5q20 0 44 -5.5t44 -9.5t34.5 -9t16.5 -5q59 -18 120.5 -37.5t127.5 -19.5q57 0 101 20.5t75 48t50.5 56t29.5 43.5l-63 24q-6 -8 -16.5 -22.5t-27 -27.5t-39 -23.5t-53.5 -10.5q-33 0 -67.5 9.5t-63.5 17.5q-94 27 -153.5 41t-104.5 14 q-47 0 -85 -14.5t-67.5 -32.5t-49 -37.5t-29.5 -32.5q-8 -8 -15.5 -16t-15.5 -18z" />
<glyph unicode="&#xf6;" horiz-adv-x="1449" d="M88 506q0 -41 14.5 -121t73.5 -168q45 -68 102.5 -109.5t111.5 -67.5t100.5 -38t70.5 -16q55 -10 96 -12.5t64 -2.5q117 0 209 24.5t159.5 62.5t113.5 82t73 83q57 86 70.5 161t13.5 114q0 29 -6 77t-25.5 104t-56.5 116.5t-101 111.5q-59 49 -123.5 76t-123 41t-105 17 t-69.5 3q-66 2 -122.5 -5t-103.5 -18t-82.5 -24.5t-56 -23.5t-55.5 -31.5t-74 -55.5t-75 -83t-60 -113q-23 -59 -28 -110.5t-5 -73.5zM242 504q0 74 18.5 131t46 99t58 69.5t53.5 44.5q43 29 89 45t87 25.5t73 12.5t48 3q25 0 83 -5t126.5 -28.5t135 -74t109.5 -138.5 q20 -41 29.5 -88t9.5 -94q0 -18 -2 -47t-11 -65t-28.5 -75.5t-52.5 -78.5q-49 -57 -108.5 -88t-115.5 -45.5t-102.5 -17.5t-68.5 -3q-53 0 -108.5 9t-107.5 28.5t-99.5 50.5t-79.5 76q-29 37 -45.5 74.5t-24.5 73.5t-10 63.5t-2 42.5zM379 1153h143v197h-143v-197zM924 1153 h141v197h-141v-197z" />
<glyph unicode="&#xf7;" d="M0 535h1366v120h-1366v-120zM592 330q0 -41 26.5 -67.5t67.5 -26.5t67.5 26.5t26.5 65.5q2 41 -25.5 67.5t-66.5 26.5q-47 0 -66.5 -23.5t-23.5 -40.5q-2 -4 -4 -11t-2 -17zM592 862q0 -41 26.5 -67.5t65.5 -26.5q41 0 68.5 25.5t27.5 66.5q2 41 -25.5 67.5t-66.5 28.5 q-41 -2 -67.5 -27.5t-28.5 -66.5z" />
<glyph unicode="&#xf8;" horiz-adv-x="1449" d="M68 53l69 -82l158 129q41 -25 62.5 -37t43.5 -22q102 -47 188.5 -57.5t129.5 -10.5q92 0 169 17.5t136 43t102 55.5t70 54q18 18 45 50t51.5 77t42 104.5t17.5 131.5q0 57 -13.5 109.5t-31 93.5t-37 69.5t-31.5 42.5q-16 20 -33 39l133 113l-71 80l-146 -121 q-31 23 -49 32t-35 17q-41 20 -121.5 43t-197.5 23q-84 0 -168 -16.5t-160 -51.5t-138.5 -90t-105.5 -133q-41 -78 -51 -142.5t-10 -99.5q0 -57 11.5 -105.5t26.5 -86t32.5 -65.5t29.5 -44q6 -10 12.5 -18.5t14.5 -18.5zM223 506q2 154 92.5 256t229.5 143q61 18 108 22.5 t72 4.5q92 0 157.5 -17.5t96.5 -33.5q23 -12 47 -29l-715 -594q-18 23 -25 33t-16 24q-33 59 -40 113.5t-7 77.5zM393 182l719 600q12 -16 29.5 -38.5t33 -54.5t25.5 -74t10 -95q0 -92 -36.5 -174t-108.5 -141q-47 -41 -100.5 -63.5t-101.5 -34t-87 -14.5t-57 -3 q-96 0 -169 22.5t-104 37.5q-20 10 -33.5 19z" />
<glyph unicode="&#xf9;" horiz-adv-x="1449" d="M145 446q0 -47 3.5 -82.5t7.5 -63.5t11 -50.5t17 -44.5q31 -72 85.5 -117t121 -70.5t140 -35t141.5 -9.5q154 0 253 34t152 67q33 20 58.5 41.5t35.5 29.5v-145h134v1012h-134v-602q-2 -41 -7 -74t-29 -70q-33 -49 -89.5 -80.5t-121 -51t-131 -28t-119.5 -8.5 q-129 0 -210 32t-120 77q-45 53 -54 119.5t-9 132.5v553h-136v-566zM422 1432l291 -297h88l-154 297h-225z" />
<glyph unicode="&#xfa;" horiz-adv-x="1449" d="M145 446q0 -47 3.5 -82.5t7.5 -63.5t11 -50.5t17 -44.5q31 -72 85.5 -117t121 -70.5t140 -35t141.5 -9.5q154 0 253 34t152 67q33 20 58.5 41.5t35.5 29.5v-145h134v1012h-134v-602q-2 -41 -7 -74t-29 -70q-33 -49 -89.5 -80.5t-121 -51t-131 -28t-119.5 -8.5 q-129 0 -210 32t-120 77q-45 53 -54 119.5t-9 132.5v553h-136v-566zM649 1137h88l295 297h-223z" />
<glyph unicode="&#xfb;" horiz-adv-x="1449" d="M145 446q0 -47 3.5 -82.5t7.5 -63.5t11 -50.5t17 -44.5q31 -72 85.5 -117t121 -70.5t140 -35t141.5 -9.5q154 0 253 34t152 67q33 20 58.5 41.5t35.5 29.5v-145h134v1012h-134v-602q-2 -41 -7 -74t-29 -70q-33 -49 -89.5 -80.5t-121 -51t-131 -28t-119.5 -8.5 q-129 0 -210 32t-120 77q-45 53 -54 119.5t-9 132.5v553h-136v-566zM446 1124h111l170 174l168 -174h104l-211 271h-120z" />
<glyph unicode="&#xfc;" horiz-adv-x="1449" d="M145 446q0 -47 3.5 -82.5t7.5 -63.5t11 -50.5t17 -44.5q31 -72 85.5 -117t121 -70.5t140 -35t141.5 -9.5q154 0 253 34t152 67q33 20 58.5 41.5t35.5 29.5v-145h134v1012h-134v-602q-2 -41 -7 -74t-29 -70q-33 -49 -89.5 -80.5t-121 -51t-131 -28t-119.5 -8.5 q-129 0 -210 32t-120 77q-45 53 -54 119.5t-9 132.5v553h-136v-566zM383 1153h141v197h-141v-197zM926 1153h141v197h-141v-197z" />
<glyph unicode="&#xff;" horiz-adv-x="1150" d="M0 1012l543 -1067q-29 -72 -63 -126.5t-111 -80.5q-47 -16 -86 -18.5t-56 -2.5q-31 0 -56.5 2t-48 6.5t-46 11.5t-53.5 17v-127q31 -6 55 -11t48 -8t48.5 -4t56.5 -1q70 0 148 11t135 56q57 43 93 117t63 135l477 1090h-146l-387 -918l-452 918h-162zM236 1165h143v197 h-143v-197zM778 1165h144v197h-144v-197z" />
<glyph unicode="&#x152;" horiz-adv-x="2347" d="M80 729q0 -78 11 -132t20 -83q6 -27 19 -64.5t35.5 -82.5t58.5 -95.5t87 -99.5q76 -72 158 -113t155.5 -61.5t135 -25.5t98.5 -5q104 0 175 15.5t112 31.5q20 8 38.5 16.5t37.5 16.5v-47h1054v121h-913v569h821v121h-821v516h883v119h-1024v-53q-53 23 -96.5 38t-86.5 25 t-90 15.5t-104 5.5q-135 0 -239.5 -34t-182.5 -82t-130 -102.5t-81 -97.5q-43 -63 -69.5 -129.5t-40 -125t-17.5 -105.5t-4 -72zM233 727q0 31 6.5 87t29 124t65.5 140.5t115 133.5q59 51 119.5 80t115.5 43.5t99 17.5t73 3q106 0 188 -23.5t117 -38.5q16 -8 29.5 -15 t30.5 -15v-1094q-45 -18 -84 -33.5t-78 -25t-81 -14.5t-91 -5q-92 0 -164 15.5t-127 39t-95 52t-69 55.5q-47 43 -77.5 87t-51 84t-31 75t-16.5 57q-10 41 -16.5 84t-6.5 86z" />
<glyph unicode="&#x153;" horiz-adv-x="2433" d="M82 508q0 -18 2 -48t10 -67t23.5 -79t44.5 -85q57 -90 136 -140t155.5 -74.5t140 -31t92.5 -6.5q98 0 177 21.5t139.5 52.5t102.5 66t66 63q10 10 25.5 30.5t34.5 51.5q14 -25 21.5 -36t17.5 -23q61 -80 136 -125t145.5 -67.5t129 -29t88.5 -6.5q137 0 261 46.5 t223 142.5q27 27 49 54.5t45 57.5l-109 78q-16 -33 -36 -59q-51 -68 -121 -113q-45 -31 -89 -49t-84 -26.5t-72 -10.5t-52 -2q-78 0 -153 19.5t-138 58.5t-110.5 98.5t-69.5 139.5q-8 29 -9 49t-4 35h1047q-10 63 -20.5 121.5t-38.5 115.5q-14 31 -41 71t-70 81t-104.5 77.5 t-143.5 59.5q-23 6 -74 15t-118 9q-137 0 -261 -47t-210 -155q-10 -12 -19.5 -25.5t-25.5 -42.5q-18 29 -34 50.5t-40 47.5q-55 61 -124 97.5t-133.5 52.5t-116.5 20.5t-75 4.5q-90 0 -162.5 -16.5t-129 -41t-98.5 -53.5t-68 -53q-53 -49 -85 -104.5t-48.5 -106.5t-20.5 -94 t-4 -70zM236 508q0 98 36.5 177t99 133t145.5 84t175 30t174 -30t144.5 -85t98.5 -133t36 -176q0 -94 -31 -161.5t-73 -113t-88 -71t-76 -37.5q-61 -23 -111.5 -28t-75.5 -5q-66 0 -119 11.5t-94 29t-71.5 37.5t-49.5 39q-41 39 -65.5 84t-36.5 88t-15 77t-3 50zM1303 606 q10 41 23 74t36 70q43 66 95 102.5t104.5 54t97.5 21.5t70 4q96 0 167.5 -23.5t123 -58.5t84 -76t48.5 -76q16 -31 21.5 -53t9.5 -37z" />
<glyph unicode="&#x178;" horiz-adv-x="1492" d="M12 1446l682 -860v-586h131v586l656 860h-164l-557 -744l-576 744h-172zM346 1647h150v196h-150v-196zM1008 1647h149v196h-149v-196z" />
<glyph unicode="&#x2c6;" horiz-adv-x="768" d="M-172 1124h111l170 174l167 -174h105l-211 271h-121z" />
<glyph unicode="&#x2dc;" horiz-adv-x="768" d="M-315 1260l55 -37q6 8 19.5 22.5t32 27.5t43 23.5t56.5 10.5q20 0 44 -5.5t44.5 -9.5t35 -9t16.5 -5q59 -18 120.5 -37.5t127.5 -19.5q57 0 101 20.5t74.5 48t50 56t30.5 43.5l-64 24q-6 -8 -16.5 -22.5t-26.5 -27.5t-38.5 -23.5t-53.5 -10.5q-33 0 -68 9.5t-63 17.5 q-94 27 -153.5 41t-104.5 14q-47 0 -85 -14.5t-68 -32.5t-49 -37.5t-30 -32.5q-8 -8 -15 -16t-15 -18z" />
<glyph unicode="&#x2000;" horiz-adv-x="935" />
<glyph unicode="&#x2001;" horiz-adv-x="1870" />
<glyph unicode="&#x2002;" horiz-adv-x="935" />
<glyph unicode="&#x2003;" horiz-adv-x="1870" />
<glyph unicode="&#x2004;" horiz-adv-x="623" />
<glyph unicode="&#x2005;" horiz-adv-x="467" />
<glyph unicode="&#x2006;" horiz-adv-x="311" />
<glyph unicode="&#x2007;" horiz-adv-x="311" />
<glyph unicode="&#x2008;" horiz-adv-x="233" />
<glyph unicode="&#x2009;" horiz-adv-x="374" />
<glyph unicode="&#x200a;" horiz-adv-x="103" />
<glyph unicode="&#x2010;" horiz-adv-x="768" d="M106 645h564v127h-564v-127z" />
<glyph unicode="&#x2011;" horiz-adv-x="768" d="M106 645h564v127h-564v-127z" />
<glyph unicode="&#x2012;" horiz-adv-x="768" d="M106 645h564v127h-564v-127z" />
<glyph unicode="&#x2013;" horiz-adv-x="1492" d="M104 633h1285v123h-1285v-123z" />
<glyph unicode="&#x2014;" d="M0 537h1366v120h-1366v-120z" />
<glyph unicode="&#x2018;" horiz-adv-x="555" d="M197 1006h172v215h-97q-2 59 3.5 87.5t29.5 51.5q16 16 29.5 18t23.5 4v76q-27 -2 -43 -5t-26 -7q-37 -16 -55.5 -43t-26.5 -54.5t-9 -51t-1 -31.5v-260z" />
<glyph unicode="&#x2019;" horiz-adv-x="555" d="M188 1233h99q2 -57 -3 -87t-30 -52q-16 -16 -29.5 -18.5t-23.5 -4.5v-74q27 0 43 4.5t26 8.5q37 14 55.5 40.5t26.5 54.5t9 51.5t1 31.5v258h-174v-213z" />
<glyph unicode="&#x201a;" horiz-adv-x="555" d="M188 0h99q2 -55 -2 -85t-27 -52q-16 -16 -31.5 -19.5t-25.5 -5.5v-76q14 2 47 7.5t63 33.5q35 33 42 70t9 82v258h-174v-213z" />
<glyph unicode="&#x201c;" horiz-adv-x="854" d="M199 1012h174v213h-90q0 57 4 87.5t26 49.5q14 12 26.5 15t20.5 3v82q-18 0 -30.5 -1t-28.5 -7q-29 -10 -59.5 -41t-40.5 -102q-2 -14 -2 -29v-27v-243zM483 1012h174v213h-90q0 57 4 87.5t27 49.5q16 12 28.5 15t18.5 3l2 82q-18 0 -30.5 -1t-30.5 -7q-29 -10 -58.5 -41 t-40.5 -102q-2 -14 -3 -27.5t-1 -28.5v-243z" />
<glyph unicode="&#x201d;" horiz-adv-x="854" d="M195 1233h90q0 -55 -4.5 -86t-26.5 -51q-16 -12 -28.5 -14.5t-18.5 -4.5v-80q16 0 28.5 1t30.5 6q29 10 59.5 41.5t39.5 103.5q2 14 3 27.5t1 25.5v244h-174v-213zM481 1233h88q2 -55 -3 -86t-27 -51q-14 -12 -26.5 -14.5t-20.5 -4.5v-80q18 0 30.5 1t28.5 6 q29 10 59.5 41.5t40.5 103.5q2 14 2 27q0 14 2 26v244h-174v-213z" />
<glyph unicode="&#x201e;" horiz-adv-x="854" d="M195 0h90q0 -55 -4.5 -86t-26.5 -51q-16 -12 -28.5 -15.5t-18.5 -3.5v-82q16 2 29 2q12 0 30 7q29 10 59.5 40.5t39.5 102.5q2 14 3 27.5t1 27.5v244h-174v-213zM481 0h88q2 -55 -3 -86t-27 -51q-14 -12 -26.5 -15.5t-20.5 -3.5v-82q18 2 30 2t29 7q29 10 59.5 40.5 t40.5 102.5q2 14 2 29q0 12 2 26v244h-174v-213z" />
<glyph unicode="&#x2022;" horiz-adv-x="681" d="M96 721q0 -72 39 -131.5t105 -87.5q35 -16 62.5 -19.5t41.5 -3.5q72 0 131.5 36t87.5 101q6 14 14.5 41t8.5 66q0 51 -18.5 96t-51.5 78t-76 51.5t-94 18.5t-96 -18.5t-79 -52.5t-54.5 -79t-20.5 -96z" />
<glyph unicode="&#x2026;" horiz-adv-x="2048" d="M246 84q0 -41 27.5 -68.5t68.5 -27.5q41 -2 67.5 27.5t26.5 68.5q0 41 -26.5 67.5t-67.5 26.5q-39 0 -67.5 -26.5t-28.5 -67.5zM930 84q0 -41 26.5 -68.5t67.5 -27.5q41 -2 68.5 27.5t27.5 68.5q-2 41 -27.5 67.5t-66.5 26.5t-68.5 -26.5t-27.5 -67.5zM1612 84 q0 -41 27.5 -68.5t68.5 -27.5q39 0 66.5 28.5t27.5 67.5q0 41 -26.5 67.5t-67.5 26.5q-39 0 -67.5 -26.5t-28.5 -67.5z" />
<glyph unicode="&#x202f;" horiz-adv-x="374" />
<glyph unicode="&#x205f;" horiz-adv-x="467" />
<glyph unicode="&#x2122;" horiz-adv-x="1406" d="M49 1362h221v-596h99v596h217v84h-537v-84zM643 766h94l-4 446v68q0 35 -4 68q4 -12 8 -25.5t8 -30.5q4 -14 9.5 -28.5t9.5 -28.5l147 -469h86l148 467q8 29 17 58.5t18 58.5q-2 -35 -2 -70q0 -33 -2 -68v-446h94v680h-140l-174 -557l-176 557h-137v-680z" />
<glyph unicode="&#x25fc;" horiz-adv-x="1013" d="M0 0v1014h1014v-1014h-1014z" />
<glyph unicode="&#xfb01;" horiz-adv-x="724" d="M20 907h201v-907h135v907h342v105h-342v166q4 72 16.5 106.5t45.5 54.5q31 20 62.5 21.5t41.5 1.5q27 0 47.5 -1t40 -3t40 -6t46.5 -11l2 119q-68 16 -115.5 18.5t-76.5 2.5q-66 0 -124 -13.5t-103 -64.5q-39 -45 -47.5 -91t-10.5 -102v-198h-201v-105zM870 0h136v1012 h-136v-1012zM870 1192h136v197h-136v-197z" />
<glyph unicode="&#xfb02;" horiz-adv-x="724" d="M20 907h201v-907h135v907h342v105h-342v166q4 72 16.5 106.5t45.5 54.5q31 20 62.5 21.5t41.5 1.5q27 0 47.5 -1t40 -3t40 -6t46.5 -11l2 119q-68 16 -115.5 18.5t-76.5 2.5q-66 0 -124 -13.5t-103 -64.5q-39 -45 -47.5 -91t-10.5 -102v-198h-201v-105zM870 0h136v1446 h-136v-1446z" />
</font>
</defs>
</svg>
